<svg xmlns="http://www.w3.org/2000/svg" xmlns:xlink="http://www.w3.org/1999/xlink" width="245.234" height="472.814" viewBox="0 0 245.234 472.814">
  <defs>
    <linearGradient id="linear-gradient" x1="-4.323" y1="4.466" x2="0.761" y2="4.584" gradientUnits="objectBoundingBox">
      <stop offset="0" stop-color="#fc5c76"/>
      <stop offset="1" stop-color="#f19138"/>
    </linearGradient>
  </defs>
  <g id="Group_8_orange" data-name="Group 8 orange" transform="translate(-106.492 -13.407)">
    <path id="Path_40" data-name="Path 40" d="M2688.091,319.407S2686.95,327.2,2670,337.2s-51.5,24.6-51.5,24.6l25.79,14.163S2669.5,364.9,2680.8,351.2,2688.091,319.407,2688.091,319.407Z" transform="translate(-2366 -210)" fill="url(#linear-gradient)"/>
    <path id="Path_41" data-name="Path 41" d="M2688.091,319.407S2686.95,327.2,2670,337.2c-7.784,4.592-51.688,20.959-85,38.762-23.146,12.37-37.633,18.373-36.33,33.679s22.855,21.953,62.855,42.3c0,0,45.649,21.315,71.224,38.064s31.078,28.932,31.078,28.932,6.09-8.972-6.369-30.452c-16.959-25.23-48.816-38.138-48.816-38.138l-81.517-43.091,67.162-31.29S2669.5,364.9,2680.8,351.2,2688.091,319.407,2688.091,319.407Z" transform="translate(-2366 -257)" fill="url(#linear-gradient)"/>
    <path id="Path_42" data-name="Path 42" d="M2688.091,319.407s-1.927,7.937-17.457,15.256c0,0-44.634,21.337-114.3,54.337C2486.891,419.5,2468,486.5,2560,523c18.664,10.8,80.437,39.685,117.27,65.352s35.913,63.868,35.913,63.868S2727.2,608.609,2706,583.5c-22-31.5-88-52.5-134.158-79.983-26.669-11.976-44.577-22.444-48.842-46.017-3.976-18.389,24.661-36.741,55.9-52.522,31.374-15.848,50.01-24.28,50.01-24.28s40.587-15.8,51.887-29.5S2688.091,319.407,2688.091,319.407Z" transform="translate(-2366 -306)" fill="url(#linear-gradient)"/>
    <path id="Path_40-2" data-name="Path 40" d="M2688.091,319.407S2686.95,327.2,2670,337.2s-51.5,24.6-51.5,24.6l25.79,14.163S2669.5,364.9,2680.8,351.2,2688.091,319.407,2688.091,319.407Z" transform="translate(2824.218 709.628) rotate(180)" fill="url(#linear-gradient)"/>
    <path id="Path_41-2" data-name="Path 41" d="M2688.091,319.407S2686.95,327.2,2670,337.2c-7.784,4.592-51.688,20.959-85,38.762-23.146,12.37-37.633,18.373-36.33,33.679s22.855,21.953,62.855,42.3c0,0,45.649,21.315,71.224,38.064s31.078,28.932,31.078,28.932,6.09-8.972-6.369-30.452c-16.959-25.23-48.816-38.138-48.816-38.138l-81.517-43.091,67.162-31.29S2669.5,364.9,2680.8,351.2,2688.091,319.407,2688.091,319.407Z" transform="translate(2824.218 756.628) rotate(180)" fill="url(#linear-gradient)"/>
    <path id="Path_42-2" data-name="Path 42" d="M2688.091,319.407s-1.927,7.937-17.457,15.256c0,0-44.634,21.337-114.3,54.337C2486.891,419.5,2468,486.5,2560,523c18.664,10.8,80.437,39.685,117.27,65.352s35.913,63.868,35.913,63.868S2727.2,608.609,2706,583.5c-22-31.5-88-52.5-134.158-79.983-26.669-11.976-44.577-22.444-48.842-46.017-3.976-18.389,24.661-36.741,55.9-52.522,31.374-15.848,50.01-24.28,50.01-24.28s40.587-15.8,51.887-29.5S2688.091,319.407,2688.091,319.407Z" transform="translate(2824.218 805.628) rotate(180)" fill="url(#linear-gradient)"/>
  </g>
</svg>
