<?xml version="1.0" encoding="UTF-8"?><svg id="Layer_2" xmlns="http://www.w3.org/2000/svg" viewBox="0 0 2000 2000"><defs><style>.cls-1{fill:#00aeef;}.cls-2{fill:#86328c;}.cls-3{fill:#e81a4b;}.cls-4{fill:#39b54a;}.cls-5{fill:#fff200;}.cls-6{fill:#f7941d;}</style></defs><g id="OBJECTS"><path class="cls-5" d="m1067.08,135.98h0c-.41,2.47-2.73,4.14-5.19,3.73l-44.55-7.43c-2.46-.41-4.12-2.75-3.71-5.22h0c.41-2.47,2.73-4.14,5.19-3.73l44.54,7.44c2.46.41,4.12,2.74,3.71,5.21Z"/><path class="cls-3" d="m1624.95,508.45h0c.88-2.34,3.48-3.53,5.82-2.65l42.27,15.95c2.34.88,3.52,3.5,2.64,5.84h0c-.88,2.35-3.48,3.53-5.82,2.65l-42.27-15.95c-2.33-.88-3.52-3.5-2.64-5.84Z"/><path class="cls-2" d="m108.82,1957.55h0c.29,2.48-1.49,4.73-3.98,5.02l-44.82,5.22c-2.49.29-4.74-1.49-5.03-3.98h0c-.29-2.49,1.49-4.73,3.98-5.02l44.82-5.22c2.49-.29,4.74,1.49,5.03,3.98Z"/><path class="cls-6" d="m1519.8,194.88h0c-1.76-1.78-1.75-4.65.02-6.41l32.02-31.97c1.77-1.76,4.63-1.76,6.39.02h0c1.76,1.78,1.75,4.65-.02,6.41l-32.02,31.97c-1.77,1.77-4.63,1.76-6.39-.02Z"/><path class="cls-4" d="m1745.48,161.8h0c-.29,2.49-2.54,4.26-5.02,3.97l-44.84-5.34c-2.48-.29-4.25-2.55-3.95-5.04h0c.29-2.49,2.54-4.26,5.01-3.97l44.84,5.34c2.48.29,4.25,2.55,3.95,5.04Z"/><path class="cls-2" d="m91.07,1367.66h0c-2.15-1.26-2.88-4.04-1.62-6.2l22.77-39.15c1.26-2.16,4.02-2.89,6.18-1.63h0c2.15,1.26,2.88,4.04,1.62,6.2l-22.77,39.15c-1.26,2.16-4.02,2.89-6.18,1.63Z"/><path class="cls-3" d="m1815.93,1936.17h0c2.49.14,4.4,2.26,4.27,4.75l-2.43,45.31c-.13,2.49-2.26,4.4-4.75,4.27h0c-2.49-.13-4.4-2.26-4.27-4.75l2.43-45.32c.13-2.49,2.26-4.4,4.75-4.27Z"/><path class="cls-5" d="m1574.69,1579.5h0c.84-2.36,3.42-3.59,5.77-2.75l42.53,15.24c2.35.84,3.57,3.44,2.74,5.79h0c-.84,2.36-3.42,3.59-5.77,2.75l-42.53-15.24c-2.35-.84-3.57-3.44-2.74-5.8Z"/><path class="cls-3" d="m198.69,1411.42h0c-2.45.49-4.83-1.1-5.32-3.55l-8.89-44.45c-.49-2.46,1.09-4.85,3.54-5.34h0c2.45-.49,4.82,1.1,5.31,3.55l8.89,44.46c.49,2.45-1.09,4.85-3.54,5.34Z"/><path class="cls-3" d="m1199.5,39.09h0c.48-2.46,2.85-4.06,5.3-3.58l44.31,8.73c2.45.48,4.04,2.86,3.56,5.32h0c-.48,2.46-2.85,4.06-5.3,3.58l-44.31-8.73c-2.45-.48-4.04-2.86-3.56-5.32Z"/><path class="cls-1" d="m1863.24,1838.95h0c2,1.5,2.4,4.35.9,6.35l-27.09,36.28c-1.5,2-4.33,2.41-6.32.91h0c-2-1.5-2.4-4.35-.9-6.35l27.09-36.28c1.49-2,4.32-2.41,6.32-.91Z"/><path class="cls-1" d="m765.87,261.25h0c.01-2.5,2.06-4.52,4.56-4.51l45.12.28c2.5.02,4.52,2.06,4.5,4.56h0c-.01,2.5-2.06,4.52-4.56,4.5l-45.12-.28c-2.5-.01-4.52-2.06-4.5-4.56Z"/><path class="cls-4" d="m1654.08,275.8h0c-2.39-.71-3.75-3.23-3.05-5.64l12.83-43.47c.71-2.4,3.22-3.77,5.61-3.06h0c2.39.71,3.75,3.23,3.05,5.64l-12.83,43.47c-.71,2.4-3.22,3.77-5.61,3.06Z"/><path class="cls-6" d="m1154.76,98.91h0c2.49.21,4.33,2.39,4.12,4.88l-3.83,45.22c-.21,2.49-2.4,4.33-4.88,4.12h0c-2.48-.21-4.33-2.39-4.12-4.88l3.82-45.22c.21-2.49,2.4-4.33,4.88-4.12Z"/><path class="cls-2" d="m758.36,1464.91h0c-2.46-.43-4.1-2.78-3.67-5.25l7.78-44.66c.43-2.47,2.77-4.12,5.22-3.69h0c2.46.43,4.1,2.78,3.67,5.25l-7.77,44.66c-.43,2.47-2.77,4.12-5.23,3.69Z"/><path class="cls-6" d="m1095.52,204.94h0c1.71-1.82,4.57-1.91,6.38-.19l32.87,31.09c1.81,1.72,1.9,4.59.19,6.41h0c-1.71,1.82-4.57,1.91-6.38.19l-32.87-31.09c-1.81-1.72-1.9-4.59-.19-6.41Z"/><path class="cls-5" d="m1489.75,776.14h0c-2.02-1.47-2.47-4.31-1.01-6.33l26.5-36.72c1.46-2.03,4.29-2.48,6.31-1.01h0c2.02,1.47,2.47,4.3,1.01,6.33l-26.5,36.72c-1.46,2.03-4.29,2.48-6.31,1.01Z"/><path class="cls-1" d="m1312.44,71.2h0c1.49-2.01,4.32-2.43,6.32-.93l36.23,27.06c2,1.49,2.42,4.33.93,6.34h0c-1.49,2.01-4.32,2.43-6.32.93l-36.23-27.06c-2-1.49-2.42-4.34-.93-6.34Z"/><path class="cls-6" d="m1306.32,251.79h0c2.47.35,4.19,2.64,3.84,5.12l-6.27,44.9c-.34,2.48-2.63,4.21-5.1,3.86h0c-2.47-.35-4.19-2.64-3.84-5.12l6.27-44.91c.35-2.48,2.63-4.21,5.1-3.86Z"/><path class="cls-3" d="m647.91,1231.83h0c2.37.79,3.65,3.35,2.87,5.73l-14.16,43.06c-.78,2.38-3.33,3.67-5.7,2.88h0c-2.37-.78-3.65-3.35-2.87-5.73l14.15-43.06c.78-2.38,3.34-3.67,5.7-2.89Z"/><path class="cls-3" d="m579.74,1181.98h0c.67-2.41,3.16-3.82,5.57-3.14l43.48,12.23c2.4.68,3.8,3.18,3.13,5.59h0c-.67,2.41-3.16,3.82-5.57,3.14l-43.48-12.23c-2.4-.67-3.8-3.18-3.13-5.59Z"/><path class="cls-4" d="m472.88,1231.62h0c.01-2.5,2.05-4.52,4.56-4.51l45.12.22c2.5.01,4.52,2.05,4.51,4.56h0c-.01,2.5-2.05,4.52-4.56,4.51l-45.12-.22c-2.51-.01-4.53-2.05-4.51-4.56Z"/><path class="cls-3" d="m1939.17,1414.7h0c.7-2.41,3.21-3.78,5.6-3.08l43.34,12.71c2.39.7,3.77,3.22,3.07,5.62h0c-.7,2.4-3.21,3.78-5.6,3.08l-43.34-12.71c-2.39-.7-3.77-3.22-3.07-5.62Z"/><path class="cls-2" d="m944.55,304.82h0c1.53,1.98,1.17,4.83-.8,6.36l-35.68,27.79c-1.97,1.53-4.81,1.17-6.33-.8h0c-1.53-1.98-1.17-4.83.8-6.36l35.68-27.78c1.97-1.53,4.81-1.18,6.34.8Z"/><path class="cls-5" d="m976.66,389.01h0c-.44-2.47,1.2-4.82,3.65-5.26l44.45-7.97c2.45-.44,4.8,1.2,5.24,3.66h0c.44,2.47-1.2,4.82-3.65,5.26l-44.45,7.97c-2.45.44-4.8-1.2-5.24-3.67Z"/><path class="cls-6" d="m238.21,1042.14h0c-2.42-.6-3.89-3.07-3.29-5.49l10.91-44c.6-2.43,3.05-3.91,5.47-3.3h0c2.42.6,3.89,3.06,3.29,5.49l-10.91,44c-.6,2.43-3.05,3.91-5.47,3.3Z"/><path class="cls-3" d="m1321.13,1303.63h0c-.2-2.5,1.66-4.68,4.16-4.88l44.98-3.6c2.5-.2,4.68,1.66,4.88,4.16h0c.2,2.49-1.66,4.68-4.16,4.88l-44.97,3.6c-2.5.2-4.68-1.66-4.88-4.16Z"/><path class="cls-3" d="m341.32,1497.32h0c1.95,1.56,2.27,4.42.71,6.37l-28.19,35.42c-1.56,1.96-4.4,2.27-6.35.71h0c-1.95-1.56-2.26-4.42-.71-6.37l28.19-35.42c1.56-1.95,4.4-2.27,6.35-.71Z"/><path class="cls-4" d="m1530.18,88.9h0c-.42-2.47,1.23-4.81,3.69-5.24l44.5-7.68c2.46-.43,4.79,1.23,5.21,3.7h0c.42,2.47-1.23,4.81-3.68,5.24l-44.5,7.68c-2.46.42-4.79-1.23-5.22-3.7Z"/><path class="cls-3" d="m1917.17,712.35h0c-1.78,1.76-4.64,1.73-6.38-.06l-31.66-32.34c-1.75-1.79-1.72-4.66.06-6.41h0c1.78-1.76,4.64-1.73,6.39.05l31.65,32.34c1.75,1.79,1.72,4.66-.06,6.41Z"/><path class="cls-5" d="m1960.18,70.3h0c-1.44,2.05-4.25,2.54-6.29,1.1l-36.92-26.11c-2.04-1.44-2.53-4.27-1.09-6.32h0c1.44-2.05,4.25-2.54,6.29-1.1l36.92,26.11c2.04,1.44,2.53,4.27,1.09,6.32Z"/><path class="cls-6" d="m864.48,1553.18h0c-1.7-1.83-1.61-4.7.21-6.41l32.98-30.97c1.82-1.71,4.68-1.61,6.38.21h0c1.7,1.83,1.61,4.7-.21,6.41l-32.98,30.97c-1.82,1.71-4.68,1.61-6.38-.21Z"/><path class="cls-5" d="m144.72,923.97h0c-1.38-2.09-.82-4.9,1.26-6.29l37.59-25.13c2.07-1.39,4.88-.82,6.26,1.26h0c1.38,2.09.82,4.9-1.26,6.29l-37.59,25.13c-2.08,1.39-4.88.82-6.26-1.26Z"/><path class="cls-4" d="m1931.99,265.66h0c-.97-2.31.11-4.97,2.41-5.94l41.62-17.6c2.3-.97,4.95.11,5.92,2.42h0c.97,2.31-.11,4.97-2.41,5.94l-41.62,17.6c-2.3.97-4.95-.11-5.91-2.42Z"/><path class="cls-1" d="m625.73,1133.8h0c-1.46-2.03-1.02-4.86,1-6.33l36.53-26.66c2.02-1.47,4.84-1.02,6.31,1h0c1.47,2.02,1.02,4.86-1,6.33l-36.53,26.66c-2.02,1.47-4.84,1.02-6.31-1Z"/><path class="cls-1" d="m871.51,1955.23h0c-1.62,1.9-4.47,2.13-6.37.5l-34.34-29.44c-1.9-1.63-2.12-4.49-.5-6.39h0c1.62-1.9,4.47-2.13,6.37-.5l34.34,29.44c1.9,1.63,2.12,4.49.5,6.39Z"/><path class="cls-3" d="m497.54,1480.51h0c-1.87-1.66-2.05-4.52-.4-6.4l29.86-34.02c1.65-1.88,4.5-2.06,6.37-.4h0c1.87,1.66,2.05,4.52.4,6.4l-29.86,34.02c-1.65,1.88-4.5,2.06-6.37.4Z"/><path class="cls-6" d="m1304.78,1677.56h0c2.47.33,4.21,2.6,3.89,5.09l-5.88,44.96c-.32,2.48-2.59,4.23-5.06,3.91h0c-2.47-.33-4.21-2.6-3.89-5.08l5.88-44.96c.32-2.48,2.59-4.23,5.06-3.91Z"/><path class="cls-3" d="m324.6,1754.11h0c-2.33-.88-3.51-3.5-2.62-5.84l15.98-42.41c.88-2.34,3.49-3.52,5.82-2.64h0c2.33.89,3.51,3.5,2.63,5.85l-15.98,42.41c-.88,2.34-3.49,3.52-5.82,2.63Z"/><path class="cls-6" d="m464.5,1555.47h0c2.26-1.05,4.95-.06,5.99,2.21l18.96,41.15c1.05,2.27.06,4.97-2.2,6.02h0c-2.26,1.05-4.95.06-5.99-2.21l-18.96-41.15c-1.05-2.27-.06-4.97,2.2-6.02Z"/><path class="cls-3" d="m1616.86,1796.64h0c.96,2.31-.13,4.97-2.42,5.93l-41.66,17.48c-2.3.97-4.95-.13-5.91-2.43h0c-.96-2.31.13-4.97,2.43-5.93l41.66-17.48c2.3-.97,4.95.13,5.91,2.43Z"/><path class="cls-5" d="m607.97,242.63h0c-2.48-.19-4.35-2.36-4.16-4.84l3.43-45.25c.19-2.49,2.36-4.35,4.85-4.16h0c2.49.19,4.35,2.36,4.16,4.84l-3.43,45.25c-.19,2.49-2.36,4.35-4.85,4.16Z"/><path class="cls-6" d="m1181.41,520.38h0c-2.34.86-4.93-.34-5.8-2.69l-15.58-42.56c-.86-2.35.34-4.96,2.68-5.82h0c2.34-.86,4.94.34,5.8,2.69l15.58,42.56c.86,2.35-.34,4.95-2.68,5.82Z"/><path class="cls-5" d="m231.49,1543.73h0c1.1-2.25,3.81-3.17,6.05-2.06l40.5,20.05c2.24,1.11,3.16,3.83,2.05,6.07h0c-1.1,2.24-3.81,3.17-6.05,2.06l-40.5-20.05c-2.24-1.11-3.15-3.83-2.05-6.07Z"/><path class="cls-6" d="m1073.91,852.57h0c-2.04,1.43-4.86.93-6.29-1.13l-25.84-37.18c-1.43-2.05-.93-4.88,1.12-6.31h0c2.04-1.43,4.86-.93,6.29,1.12l25.84,37.18c1.43,2.05.93,4.88-1.12,6.31Z"/><path class="cls-4" d="m1727.51,1147.07h0c.98,2.31-.09,4.97-2.38,5.95l-41.54,17.79c-2.29.98-4.95-.09-5.93-2.39h0c-.98-2.3.09-4.97,2.38-5.95l41.53-17.79c2.3-.98,4.95.09,5.92,2.39Z"/><path class="cls-4" d="m1260.43,868.24h0c-2.34-.85-3.56-3.45-2.71-5.81l15.38-42.63c.85-2.35,3.44-3.57,5.78-2.72h0c2.34.85,3.56,3.45,2.71,5.81l-15.38,42.63c-.85,2.35-3.44,3.57-5.78,2.72Z"/><path class="cls-2" d="m1644.24,729.36h0c1.72-1.82,4.57-1.9,6.38-.17l32.78,31.19c1.81,1.72,1.89,4.59.17,6.41h0c-1.72,1.82-4.57,1.89-6.38.17l-32.77-31.19c-1.81-1.72-1.89-4.59-.17-6.41Z"/><path class="cls-2" d="m1351.58,1786.42h0c-.25,2.49-2.48,4.31-4.97,4.05l-44.89-4.59c-2.49-.25-4.3-2.48-4.05-4.97h0c.25-2.49,2.48-4.31,4.97-4.05l44.89,4.59c2.49.25,4.3,2.48,4.05,4.97Z"/><path class="cls-5" d="m1749.18,1124.64h0c-2.13-1.3-2.81-4.09-1.51-6.23l23.48-38.73c1.3-2.14,4.08-2.82,6.2-1.52h0c2.13,1.3,2.81,4.09,1.51,6.23l-23.48,38.73c-1.3,2.14-4.08,2.82-6.2,1.51Z"/><path class="cls-5" d="m1437.15,1298.18h0c1.47-2.02,4.29-2.47,6.31-.99l36.49,26.72c2.01,1.48,2.46,4.31.99,6.34h0c-1.47,2.02-4.29,2.47-6.31.99l-36.48-26.72c-2.02-1.48-2.46-4.31-.99-6.34Z"/><path class="cls-5" d="m1053.2,1979.37h0c-2.29,1-4.95-.06-5.94-2.35l-18-41.59c-.99-2.3.05-4.97,2.34-5.97h0c2.29-1,4.95.06,5.94,2.35l18,41.59c.99,2.3-.05,4.97-2.34,5.97Z"/><path class="cls-2" d="m1179.72,867.01h0c-1.98,1.52-4.82,1.13-6.33-.86l-27.36-36.07c-1.51-1.99-1.13-4.84.86-6.35h0c1.98-1.52,4.82-1.13,6.33.86l27.36,36.07c1.51,1.99,1.13,4.84-.86,6.36Z"/><path class="cls-3" d="m1082.18,930.91h0c-.18-2.5,1.7-4.66,4.2-4.84l45-3.21c2.5-.18,4.67,1.7,4.84,4.2h0c.18,2.5-1.7,4.66-4.2,4.84l-45,3.21c-2.5.18-4.67-1.7-4.84-4.2Z"/><path class="cls-5" d="m135.41,961.31h0c1.68-1.85,4.54-1.98,6.38-.3l33.37,30.55c1.84,1.69,1.97,4.56.29,6.41h0c-1.68,1.85-4.54,1.98-6.38.3l-33.37-30.55c-1.84-1.69-1.97-4.56-.29-6.4Z"/><path class="cls-1" d="m1323.03,1098.65h0c1.86,1.66,2.03,4.53.37,6.4l-30.02,33.88c-1.66,1.87-4.51,2.04-6.38.37h0c-1.86-1.67-2.03-4.53-.37-6.4l30.02-33.88c1.66-1.87,4.51-2.04,6.37-.37Z"/><path class="cls-5" d="m805.16,706.73h0c.79,2.37-.48,4.95-2.84,5.74l-42.8,14.44c-2.36.8-4.92-.48-5.72-2.85h0c-.79-2.38.48-4.94,2.84-5.74l42.8-14.44c2.36-.8,4.92.48,5.72,2.85Z"/><path class="cls-6" d="m221.59,90.09h0c-1.01-2.29,0-4.97,2.29-5.99l41.24-18.46c2.28-1.02,4.95,0,5.96,2.3h0c1.02,2.29,0,4.97-2.29,5.99l-41.24,18.46c-2.28,1.02-4.95,0-5.96-2.3Z"/><path class="cls-1" d="m116.02,1291.41h0c-.86,2.35-3.46,3.55-5.8,2.68l-42.36-15.7c-2.34-.87-3.54-3.47-2.67-5.82h0c.86-2.35,3.46-3.55,5.8-2.68l42.36,15.7c2.34.87,3.54,3.47,2.67,5.82Z"/><path class="cls-4" d="m1201.62,1087.77h0c2.1-1.35,4.89-.74,6.24,1.36l24.4,38.15c1.35,2.11.74,4.91-1.36,6.26h0c-2.1,1.35-4.89.74-6.24-1.36l-24.4-38.15c-1.35-2.11-.74-4.91,1.36-6.26Z"/><path class="cls-1" d="m1302.32,412.25h0c-.34-2.48,1.38-4.77,3.85-5.11l44.73-6.21c2.47-.34,4.75,1.39,5.09,3.87h0c.34,2.48-1.38,4.77-3.85,5.11l-44.73,6.21c-2.47.34-4.75-1.39-5.09-3.87Z"/><path class="cls-5" d="m398.49,1809.46h0c-1.63-1.9-1.42-4.76.47-6.39l34.21-29.59c1.89-1.64,4.74-1.42,6.37.48h0c1.63,1.9,1.41,4.76-.48,6.39l-34.21,29.59c-1.89,1.64-4.74,1.42-6.37-.48Z"/><path class="cls-1" d="m777.89,164.77h0c-.04,2.5-2.11,4.5-4.61,4.45l-45.11-.82c-2.5-.05-4.5-2.11-4.45-4.62h0c.04-2.5,2.11-4.5,4.61-4.45l45.11.82c2.5.04,4.5,2.11,4.45,4.61Z"/><path class="cls-3" d="m1997.56,1813.46h0c-1.72,1.81-4.58,1.87-6.39.14l-32.61-31.36c-1.8-1.73-1.86-4.6-.14-6.41h0c1.73-1.81,4.58-1.87,6.39-.14l32.61,31.36c1.8,1.73,1.86,4.6.14,6.41Z"/><path class="cls-4" d="m840.65,237.59h0c2.49-.21,4.67,1.64,4.87,4.13l3.72,45.23c.2,2.48-1.64,4.66-4.13,4.87h0c-2.49.21-4.67-1.64-4.87-4.13l-3.72-45.23c-.2-2.48,1.64-4.66,4.13-4.87Z"/><path class="cls-3" d="m40.25,381.95h0c-.87-2.35.32-4.96,2.65-5.83l42.31-15.85c2.34-.88,4.94.32,5.81,2.66h0c.87,2.35-.32,4.96-2.65,5.83l-42.31,15.85c-2.34.88-4.94-.32-5.81-2.66Z"/><path class="cls-4" d="m1223.69,221.41h0c2.44.52,3.99,2.93,3.47,5.38l-9.45,44.34c-.52,2.45-2.92,4.01-5.36,3.49h0c-2.44-.52-3.99-2.93-3.47-5.38l9.45-44.34c.52-2.45,2.92-4.01,5.36-3.48Z"/><path class="cls-2" d="m1573.9,807.51h0c1.94,1.57,2.25,4.43.68,6.38l-28.34,35.3c-1.57,1.95-4.41,2.26-6.35.69h0c-1.94-1.57-2.25-4.43-.68-6.38l28.34-35.31c1.56-1.95,4.41-2.26,6.35-.68Z"/><path class="cls-5" d="m296.13,869.88h0c.4,2.47-1.27,4.8-3.73,5.2l-44.57,7.28c-2.46.4-4.78-1.28-5.18-3.75h0c-.4-2.47,1.27-4.8,3.73-5.2l44.57-7.27c2.46-.4,4.78,1.27,5.18,3.75Z"/><path class="cls-1" d="m909.33,817.97h0c-.54,2.44-2.96,3.98-5.39,3.43l-44.07-9.9c-2.43-.55-3.96-2.97-3.42-5.41h0c.54-2.44,2.96-3.98,5.39-3.43l44.06,9.9c2.43.55,3.96,2.97,3.42,5.42Z"/><path class="cls-6" d="m938.67,1589.23h0c1.41,2.07.88,4.89-1.18,6.3l-37.27,25.6c-2.06,1.41-4.87.89-6.28-1.18h0c-1.41-2.07-.88-4.89,1.18-6.3l37.27-25.6c2.06-1.42,4.87-.89,6.28,1.18Z"/><path class="cls-6" d="m1612.68,453.75h0c.32,2.48-1.42,4.76-3.9,5.08l-44.78,5.82c-2.47.32-4.74-1.43-5.06-3.91h0c-.32-2.48,1.42-4.76,3.9-5.08l44.78-5.82c2.47-.32,4.74,1.43,5.06,3.91Z"/><path class="cls-5" d="m1451.57,1530.9h0c-2.08,1.39-4.88.82-6.26-1.27l-24.97-37.78c-1.38-2.09-.81-4.9,1.27-6.28h0c2.08-1.39,4.88-.82,6.26,1.27l24.97,37.78c1.38,2.09.81,4.9-1.26,6.28Z"/><path class="cls-6" d="m670.92,1015.19h0c1.47-2.02,4.3-2.46,6.31-.98l36.46,26.75c2.01,1.48,2.45,4.31.98,6.34h0c-1.47,2.02-4.3,2.46-6.31.99l-36.46-26.75c-2.01-1.48-2.45-4.32-.98-6.34Z"/><path class="cls-6" d="m26.46,422.59h0c2.44-.53,4.84,1.02,5.38,3.46l9.63,44.3c.53,2.45-1.01,4.86-3.45,5.4h0c-2.44.53-4.84-1.02-5.38-3.46l-9.63-44.3c-.53-2.45,1.01-4.86,3.45-5.4Z"/><path class="cls-6" d="m295.81,57.99h0c-1.07-2.26-.12-4.97,2.13-6.04l40.76-19.51c2.25-1.08,4.94-.12,6.02,2.14h0c1.07,2.26.12,4.97-2.13,6.04l-40.76,19.52c-2.25,1.08-4.94.12-6.02-2.14Z"/><path class="cls-1" d="m1602.3,912.89h0c-2.49-.17-4.37-2.33-4.2-4.81l3.1-45.27c.17-2.49,2.33-4.37,4.82-4.2h0c2.49.17,4.36,2.33,4.19,4.81l-3.09,45.27c-.17,2.49-2.33,4.37-4.81,4.2Z"/><path class="cls-6" d="m530.91,936.44h0c-2.49-.04-4.48-2.09-4.45-4.58l.66-45.38c.04-2.49,2.09-4.49,4.58-4.45h0c2.49.04,4.48,2.09,4.45,4.58l-.66,45.38c-.04,2.49-2.09,4.48-4.58,4.45Z"/><path class="cls-3" d="m1007.53,1707.57h0c.95,2.32-.16,4.97-2.46,5.91l-41.78,17.2c-2.31.95-4.94-.16-5.89-2.48h0c-.94-2.32.16-4.97,2.47-5.92l41.78-17.19c2.31-.95,4.95.16,5.89,2.48Z"/><path class="cls-5" d="m603.29,1116.36h0c-.2,2.5-2.39,4.36-4.88,4.16l-44.97-3.64c-2.49-.2-4.35-2.39-4.15-4.88h0c.2-2.5,2.39-4.36,4.88-4.16l44.97,3.64c2.49.2,4.35,2.39,4.15,4.88Z"/><path class="cls-5" d="m429.23,274.58h0c1.12,2.24.22,4.96-2,6.09l-40.33,20.39c-2.23,1.13-4.94.23-6.06-2.01h0c-1.12-2.24-.22-4.96,2-6.09l40.33-20.39c2.23-1.13,4.94-.23,6.06,2.01Z"/><path class="cls-6" d="m1175.84,1401.61h0c2.37.78,3.65,3.35,2.87,5.73l-14.18,43.05c-.78,2.38-3.34,3.67-5.7,2.88h0c-2.37-.79-3.65-3.35-2.87-5.73l14.18-43.05c.78-2.38,3.34-3.67,5.7-2.88Z"/><path class="cls-3" d="m971.34,1968.84h0c-2.19,1.2-4.93.4-6.13-1.79l-21.74-39.74c-1.2-2.19-.4-4.95,1.78-6.16h0c2.19-1.2,4.93-.4,6.13,1.79l21.74,39.74c1.2,2.19.4,4.95-1.78,6.16Z"/><path class="cls-6" d="m1371.34,468.16h0c-.06-2.5,1.92-4.58,4.43-4.64l45.11-1.07c2.5-.06,4.58,1.92,4.64,4.43h0c.06,2.5-1.92,4.58-4.43,4.64l-45.11,1.07c-2.5.06-4.58-1.92-4.64-4.43Z"/><path class="cls-6" d="m63.85,115.41h0c.44-2.46,2.78-4.11,5.24-3.67l44.46,7.95c2.46.44,4.09,2.79,3.65,5.26h0c-.44,2.47-2.78,4.11-5.24,3.67l-44.46-7.95c-2.46-.44-4.09-2.79-3.65-5.26Z"/><path class="cls-3" d="m1395.58,1928.32h0c2.08-1.39,4.88-.82,6.26,1.27l24.99,37.77c1.38,2.09.81,4.9-1.26,6.29h0c-2.08,1.38-4.88.82-6.26-1.27l-24.99-37.77c-1.38-2.09-.82-4.9,1.26-6.29Z"/><path class="cls-2" d="m1229.27,357.18h0c1.7-1.83,4.56-1.93,6.38-.21l32.98,30.97c1.82,1.71,1.92,4.58.22,6.41h0c-1.7,1.83-4.56,1.93-6.38.22l-32.98-30.97c-1.82-1.71-1.92-4.58-.21-6.41Z"/><path class="cls-6" d="m82.61,1547.97h0c-.43-2.47,1.22-4.81,3.68-5.24l44.5-7.74c2.46-.43,4.79,1.23,5.22,3.69h0c.43,2.47-1.22,4.81-3.68,5.24l-44.49,7.73c-2.46.43-4.79-1.23-5.22-3.69Z"/><path class="cls-4" d="m1509.21,1371.31h0c-1.14-2.23-.26-4.96,1.96-6.1l40.18-20.69c2.22-1.14,4.94-.26,6.08,1.97h0c1.14,2.23.26,4.96-1.96,6.1l-40.18,20.69c-2.22,1.14-4.94.26-6.08-1.97Z"/><path class="cls-6" d="m992.65,1473.77h0c-2.37.78-4.92-.51-5.7-2.89l-14.11-43.07c-.78-2.38.51-4.94,2.88-5.72h0c2.37-.78,4.92.51,5.7,2.89l14.11,43.07c.78,2.38-.51,4.94-2.88,5.73Z"/><path class="cls-3" d="m1998.98,970.71h0c1.57,1.94,1.28,4.8-.65,6.38l-35,28.65c-1.93,1.58-4.78,1.29-6.35-.65h0c-1.58-1.94-1.29-4.8.65-6.38l35-28.65c1.93-1.58,4.78-1.29,6.35.65Z"/><path class="cls-6" d="m648.68,212.93h0c1.32-2.12,4.11-2.77,6.22-1.44l38.3,24.02c2.11,1.33,2.76,4.12,1.44,6.25h0c-1.32,2.12-4.11,2.77-6.22,1.44l-38.3-24.02c-2.12-1.33-2.76-4.12-1.44-6.25Z"/><path class="cls-2" d="m621.1,1833.46h0c-1.63-1.9-1.42-4.76.46-6.4l34.16-29.66c1.89-1.64,4.74-1.43,6.37.47h0c1.63,1.9,1.42,4.76-.46,6.4l-34.16,29.65c-1.89,1.64-4.74,1.43-6.37-.47Z"/><path class="cls-1" d="m1362.73,1191.67h0c2.29.98,3.37,3.64,2.39,5.95l-17.64,41.74c-.97,2.31-3.63,3.38-5.92,2.4h0c-2.3-.98-3.37-3.64-2.39-5.95l17.64-41.74c.97-2.31,3.63-3.38,5.92-2.4Z"/><path class="cls-2" d="m1691.32,886.31h0c2.31-.94,4.94.17,5.88,2.49l17.01,42c.94,2.32-.17,4.97-2.48,5.91h0c-2.31.94-4.94-.17-5.88-2.49l-17.01-42c-.94-2.32.17-4.97,2.48-5.91Z"/><path class="cls-1" d="m45.35,1753.51h0c-2.48.28-4.72-1.51-4.99-3.99l-5.01-45.1c-.27-2.48,1.51-4.71,3.99-4.99h0c2.48-.28,4.72,1.51,4.99,3.99l5.01,45.1c.28,2.48-1.51,4.71-3.99,4.99Z"/><path class="cls-5" d="m1814.58,579.86h0c2.11-1.33,4.9-.68,6.22,1.44l23.93,38.45c1.32,2.12.68,4.92-1.44,6.25h0c-2.11,1.33-4.9.68-6.22-1.44l-23.93-38.45c-1.32-2.12-.68-4.92,1.44-6.25Z"/><path class="cls-2" d="m465.67,1952.14h0c-2.3-.96-3.39-3.62-2.43-5.93l17.39-41.85c.96-2.31,3.61-3.4,5.91-2.44h0c2.3.97,3.39,3.62,2.43,5.93l-17.39,41.85c-.96,2.31-3.6,3.4-5.91,2.44Z"/><path class="cls-6" d="m591.08,331.34h0c2.45.46,4.07,2.83,3.61,5.29l-8.31,44.57c-.46,2.46-2.82,4.08-5.27,3.62h0c-2.45-.46-4.07-2.83-3.61-5.29l8.31-44.57c.46-2.46,2.82-4.08,5.27-3.62Z"/><path class="cls-1" d="m846.54,372.42h0c2.37-.79,4.92.49,5.71,2.87l14.28,43.02c.79,2.38-.49,4.95-2.86,5.74h0c-2.36.79-4.92-.49-5.71-2.87l-14.28-43.02c-.79-2.38.49-4.94,2.85-5.74Z"/><path class="cls-2" d="m1688.43,1539.12h0c.89,2.34-.28,4.96-2.61,5.85l-42.18,16.18c-2.33.89-4.94-.28-5.83-2.62h0c-.89-2.34.28-4.96,2.61-5.85l42.18-16.18c2.33-.89,4.94.28,5.83,2.62Z"/><path class="cls-1" d="m1291.06,985.85h0c1.78-1.75,4.64-1.73,6.39.06l31.65,32.35c1.75,1.79,1.72,4.66-.06,6.41h0c-1.78,1.75-4.64,1.73-6.39-.06l-31.64-32.34c-1.75-1.79-1.72-4.66.06-6.41Z"/><path class="cls-3" d="m1448.81,823.57h0c2.39-.73,4.91.62,5.64,3.02l13.18,43.37c.73,2.4-.62,4.93-3,5.66h0c-2.39.73-4.91-.62-5.64-3.01l-13.18-43.37c-.73-2.4.62-4.93,3-5.66Z"/><path class="cls-5" d="m1136.5,1624.24h0c-1.8-1.73-1.87-4.6-.15-6.41l31.16-32.82c1.72-1.81,4.58-1.88,6.38-.15h0c1.8,1.73,1.87,4.6.15,6.41l-31.16,32.82c-1.72,1.81-4.58,1.88-6.38.15Z"/><path class="cls-1" d="m560.96,203.49h0c.1,2.5-1.85,4.61-4.35,4.71l-45.08,1.81c-2.5.1-4.61-1.85-4.71-4.35h0c-.1-2.5,1.85-4.61,4.35-4.71l45.08-1.81c2.5-.1,4.61,1.85,4.71,4.35Z"/><path class="cls-4" d="m932.98,245.03h0c1-2.29,3.66-3.34,5.95-2.34l41.37,18.18c2.28,1,3.33,3.68,2.33,5.97h0c-1,2.29-3.66,3.34-5.95,2.34l-41.37-18.18c-2.28-1-3.32-3.68-2.33-5.97Z"/><path class="cls-6" d="m1579.11,1949.35h0c1.53-1.98,4.36-2.34,6.34-.81l35.71,27.76c1.97,1.53,2.33,4.38.81,6.36h0c-1.53,1.98-4.36,2.34-6.34.81l-35.7-27.76c-1.97-1.53-2.33-4.38-.81-6.36Z"/><path class="cls-6" d="m241.71,1685.66h0c-2.3.96-4.94-.14-5.9-2.45l-17.3-41.88c-.95-2.31.14-4.97,2.44-5.93h0c2.3-.96,4.94.14,5.9,2.45l17.3,41.88c.95,2.31-.14,4.97-2.44,5.92Z"/><path class="cls-3" d="m172.46,1528.88h0c-2.17-1.24-2.93-4-1.7-6.18l22.25-39.46c1.23-2.18,3.98-2.94,6.15-1.71h0c2.17,1.23,2.93,4,1.7,6.18l-22.25,39.45c-1.23,2.18-3.98,2.94-6.15,1.71Z"/><path class="cls-2" d="m1480.81,1218.46h0c1.86,1.67,2.02,4.53.36,6.4l-30.08,33.82c-1.66,1.87-4.51,2.03-6.37.36h0c-1.86-1.67-2.02-4.53-.36-6.4l30.08-33.82c1.66-1.87,4.51-2.03,6.37-.36Z"/><path class="cls-6" d="m1963.57,496.14h0c-2.12,1.32-4.9.67-6.22-1.46l-23.83-38.51c-1.32-2.13-.67-4.92,1.45-6.24h0c2.12-1.32,4.9-.67,6.22,1.46l23.83,38.51c1.32,2.13.67,4.92-1.45,6.24Z"/><path class="cls-6" d="m217.09,219.91h0c1.61-1.91,4.46-2.14,6.36-.52l34.43,29.34c1.9,1.62,2.13,4.48.52,6.39h0c-1.61,1.91-4.46,2.14-6.36.52l-34.43-29.34c-1.9-1.62-2.14-4.48-.52-6.39Z"/><path class="cls-2" d="m1141.59,1755.55h0c1.06-2.26,3.76-3.23,6.01-2.16l40.83,19.37c2.25,1.07,3.22,3.77,2.15,6.04h0c-1.07,2.26-3.76,3.23-6.01,2.16l-40.83-19.37c-2.26-1.07-3.22-3.77-2.15-6.04Z"/><path class="cls-3" d="m1098.25,384.67h0c-.74-2.39.59-4.93,2.97-5.68l43.13-13.44c2.38-.74,4.91.59,5.65,2.98h0c.74,2.39-.59,4.93-2.97,5.68l-43.12,13.45c-2.38.74-4.91-.6-5.65-2.99Z"/><path class="cls-1" d="m1015.16,914.38h0c2.41.66,3.82,3.16,3.16,5.57l-11.95,43.73c-.66,2.41-3.14,3.84-5.55,3.17h0c-2.4-.66-3.82-3.16-3.16-5.57l11.95-43.73c.66-2.41,3.14-3.84,5.55-3.17Z"/><path class="cls-2" d="m1259.38,756.36h0c-1.99,1.51-4.82,1.12-6.33-.87l-27.3-36.12c-1.51-1.99-1.12-4.84.87-6.35h0c1.99-1.51,4.82-1.12,6.33.87l27.29,36.12c1.51,1.99,1.12,4.84-.87,6.35Z"/><path class="cls-6" d="m1919.94,976.86h0c-2.39.73-4.91-.63-5.63-3.02l-13.13-43.39c-.73-2.4.62-4.93,3.01-5.66h0c2.39-.73,4.91.62,5.63,3.02l13.13,43.39c.72,2.4-.62,4.93-3.01,5.66Z"/><path class="cls-3" d="m1748.14,1896.96h0c2.47.35,4.19,2.65,3.83,5.13l-6.36,44.89c-.35,2.48-2.64,4.2-5.11,3.85h0c-2.47-.35-4.19-2.65-3.83-5.13l6.36-44.89c.35-2.48,2.64-4.2,5.11-3.85Z"/><path class="cls-5" d="m1829.45,955.11h0c-.79,2.38-3.34,3.66-5.71,2.88l-42.86-14.29c-2.37-.79-3.65-3.35-2.86-5.73h0c.78-2.38,3.34-3.66,5.71-2.88l42.85,14.29c2.37.79,3.65,3.35,2.86,5.73Z"/><path class="cls-1" d="m1647.17,1709.57h0c-1.17-2.21-.33-4.96,1.87-6.13l39.88-21.27c2.2-1.18,4.94-.34,6.11,1.88h0c1.17,2.21.33,4.96-1.87,6.13l-39.88,21.27c-2.2,1.18-4.94.33-6.11-1.88Z"/><path class="cls-2" d="m1212.69,1555.39h0c-1.51,1.99-4.34,2.38-6.33.86l-35.91-27.48c-1.98-1.52-2.37-4.36-.86-6.35h0c1.51-1.99,4.35-2.38,6.33-.86l35.92,27.48c1.98,1.52,2.36,4.36.85,6.35Z"/><path class="cls-2" d="m955.75,57.54h0c-2.21-1.16-3.07-3.89-1.92-6.12l20.86-40.21c1.15-2.22,3.88-3.08,6.09-1.93h0c2.21,1.16,3.07,3.9,1.92,6.11l-20.86,40.22c-1.15,2.22-3.88,3.08-6.09,1.93Z"/><path class="cls-5" d="m475.86,670.08h0c2.03-1.46,4.85-1,6.3,1.04l26.33,36.84c1.45,2.03.99,4.87-1.03,6.33h0c-2.03,1.46-4.85.99-6.3-1.04l-26.33-36.84c-1.45-2.03-.99-4.87,1.04-6.33Z"/><path class="cls-1" d="m774.39,471.77h0c.12,2.5-1.81,4.62-4.32,4.74l-45.07,2.12c-2.5.12-4.63-1.82-4.74-4.32h0c-.12-2.5,1.81-4.62,4.31-4.74l45.07-2.12c2.5-.12,4.62,1.82,4.74,4.32Z"/><path class="cls-3" d="m1015.2,244.34h0c1.39-2.08,4.2-2.63,6.27-1.23l37.45,25.34c2.07,1.4,2.61,4.22,1.22,6.29h0c-1.39,2.08-4.2,2.63-6.27,1.23l-37.45-25.34c-2.07-1.4-2.61-4.22-1.22-6.29Z"/><path class="cls-3" d="m1923.66,165.67h0c-2.04,1.44-4.86.94-6.29-1.11l-25.92-37.13c-1.43-2.05-.94-4.88,1.11-6.31h0c2.04-1.44,4.86-.94,6.29,1.11l25.92,37.13c1.43,2.05.94,4.88-1.11,6.32Z"/><path class="cls-2" d="m698.45,633.16h0c2.48-.29,4.72,1.49,5,3.97l5.16,45.08c.28,2.48-1.49,4.71-3.97,5h0c-2.48.29-4.72-1.49-5-3.97l-5.16-45.08c-.28-2.48,1.49-4.72,3.97-5Z"/><path class="cls-1" d="m57.35,563.4h0c1.57-1.94,4.42-2.24,6.35-.66l35.05,28.59c1.94,1.58,2.23,4.43.66,6.38h0c-1.57,1.94-4.42,2.24-6.35.66l-35.05-28.58c-1.94-1.58-2.23-4.43-.66-6.38Z"/><path class="cls-4" d="m300.97,679.24h0c-1.59,1.93-4.44,2.19-6.36.59l-34.75-28.96c-1.92-1.6-2.18-4.46-.59-6.39h0c1.59-1.93,4.44-2.19,6.36-.59l34.75,28.96c1.92,1.6,2.18,4.46.59,6.38Z"/><path class="cls-1" d="m1650.84,1049.29h0c-2.46-.4-4.14-2.72-3.75-5.19l7.13-44.77c.4-2.47,2.71-4.16,5.17-3.76h0c2.46.39,4.14,2.72,3.75,5.19l-7.13,44.77c-.39,2.47-2.71,4.16-5.17,3.76Z"/><path class="cls-3" d="m28.98,521.09h0c-.59-2.43.9-4.88,3.32-5.48l43.87-10.73c2.42-.59,4.87.9,5.45,3.33h0c.59,2.43-.9,4.89-3.32,5.48l-43.87,10.73c-2.42.59-4.87-.9-5.46-3.33Z"/><path class="cls-3" d="m585.72,630.28h0c2.46-.39,4.77,1.3,5.16,3.77l7.04,44.79c.39,2.47-1.29,4.8-3.75,5.18h0c-2.46.39-4.78-1.3-5.16-3.77l-7.04-44.79c-.39-2.47,1.29-4.8,3.76-5.19Z"/><path class="cls-3" d="m189.9,509.95h0c2.46-.4,4.78,1.27,5.18,3.75l7.26,44.75c.4,2.47-1.27,4.8-3.73,5.2h0c-2.46.4-4.78-1.27-5.18-3.75l-7.26-44.75c-.4-2.47,1.27-4.8,3.73-5.2Z"/><path class="cls-3" d="m294.99,1174.65h0c-2.44-.52-4-2.92-3.48-5.38l9.36-44.36c.52-2.45,2.91-4.01,5.35-3.5h0c2.44.52,4,2.93,3.48,5.38l-9.36,44.36c-.52,2.45-2.91,4.01-5.35,3.49Z"/><path class="cls-3" d="m919.58,764.82h0c-1.13-2.23-.25-4.96,1.97-6.1l40.24-20.58c2.22-1.14,4.94-.25,6.07,1.98h0c1.13,2.23.25,4.96-1.97,6.1l-40.24,20.58c-2.22,1.13-4.94.25-6.07-1.98Z"/><path class="cls-3" d="m1023.36,524.98h0c1.08,2.26.14,4.97-2.11,6.05l-40.68,19.69c-2.25,1.09-4.95.14-6.03-2.12h0c-1.08-2.26-.14-4.97,2.11-6.05l40.68-19.69c2.25-1.09,4.94-.14,6.03,2.12Z"/><path class="cls-2" d="m1028.18,1414h0c-2.32.93-4.95-.2-5.87-2.52l-16.83-42.08c-.93-2.32.19-4.97,2.51-5.9h0c2.31-.93,4.95.19,5.87,2.52l16.83,42.08c.93,2.33-.19,4.97-2.51,5.9Z"/><path class="cls-6" d="m1414.94,1674.86h0c-1.61,1.91-4.46,2.15-6.36.53l-34.45-29.31c-1.9-1.62-2.14-4.48-.52-6.39h0c1.61-1.91,4.46-2.15,6.36-.53l34.45,29.31c1.9,1.62,2.14,4.48.52,6.39Z"/><path class="cls-4" d="m503.16,338.08h0c-2.36-.8-3.63-3.38-2.83-5.75l14.47-42.95c.8-2.37,3.36-3.64,5.72-2.84h0c2.36.8,3.63,3.38,2.83,5.75l-14.47,42.95c-.8,2.37-3.36,3.64-5.72,2.84Z"/><path class="cls-3" d="m42.32,1218.62h0c-1.5-2-1.1-4.84.89-6.35l36.07-27.28c1.99-1.51,4.82-1.11,6.32.9h0c1.5,2,1.1,4.84-.89,6.35l-36.07,27.28c-1.99,1.51-4.82,1.1-6.32-.9Z"/><path class="cls-1" d="m514.54,1765.89h0c-1.53-1.98-1.17-4.83.8-6.36l35.69-27.78c1.97-1.53,4.81-1.17,6.33.81h0c1.53,1.98,1.17,4.83-.8,6.36l-35.69,27.78c-1.97,1.53-4.81,1.18-6.34-.81Z"/><path class="cls-6" d="m935.73,1784.7h0c1.51,1.99,1.14,4.84-.85,6.36l-35.89,27.52c-1.98,1.52-4.82,1.14-6.33-.85h0c-1.51-1.99-1.13-4.84.85-6.35l35.89-27.52c1.98-1.52,4.81-1.14,6.33.85Z"/><path class="cls-6" d="m1495.09,1572.11h0c.9,2.34-.26,4.96-2.59,5.86l-42.14,16.28c-2.33.9-4.94-.26-5.84-2.6h0c-.9-2.34.26-4.96,2.59-5.86l42.14-16.28c2.33-.9,4.94.26,5.83,2.6Z"/><path class="cls-1" d="m172.62,837.2h0c-1.61-1.91-1.36-4.77.55-6.39l34.54-29.21c1.91-1.61,4.76-1.37,6.36.55h0c1.61,1.91,1.36,4.78-.55,6.39l-34.54,29.21c-1.91,1.61-4.76,1.37-6.36-.55Z"/><path class="cls-5" d="m1868.07,552.08h0c-2.41-.64-3.85-3.12-3.21-5.54l11.55-43.84c.64-2.42,3.11-3.86,5.52-3.22h0c2.41.64,3.85,3.12,3.21,5.54l-11.55,43.84c-.64,2.42-3.11,3.86-5.52,3.23Z"/><path class="cls-4" d="m379.05,1292.98h0c2.48-.26,4.71,1.53,4.97,4.01l4.79,45.13c.26,2.48-1.53,4.7-4.01,4.97h0c-2.48.26-4.71-1.53-4.97-4.02l-4.78-45.13c-.26-2.48,1.53-4.7,4.01-4.97Z"/><path class="cls-3" d="m23.19,1635.37h0c.13-2.5,2.27-4.42,4.77-4.29l45.06,2.38c2.5.13,4.42,2.26,4.29,4.76h0c-.13,2.5-2.26,4.42-4.77,4.29l-45.06-2.37c-2.5-.13-4.42-2.26-4.29-4.76Z"/><path class="cls-2" d="m1010.47,1023.34h0c-2.4-.67-3.81-3.17-3.14-5.58l12.07-43.69c.67-2.41,3.15-3.83,5.56-3.16h0c2.4.67,3.81,3.17,3.14,5.58l-12.07,43.69c-.67,2.41-3.15,3.82-5.56,3.16Z"/><path class="cls-6" d="m1333.59,590.03h0c-2.12,1.32-4.9.67-6.22-1.45l-23.86-38.49c-1.32-2.13-.67-4.92,1.45-6.24h0c2.12-1.32,4.9-.67,6.22,1.45l23.86,38.49c1.32,2.13.67,4.92-1.45,6.24Z"/><path class="cls-1" d="m340.22,399.72h0c-.36,2.48-2.66,4.19-5.13,3.83l-44.67-6.6c-2.47-.36-4.17-2.67-3.81-5.15h0c.36-2.48,2.66-4.19,5.13-3.82l44.68,6.6c2.47.36,4.17,2.67,3.81,5.15Z"/><path class="cls-3" d="m369.75,1903.07h0c-1.32,2.13-4.1,2.78-6.22,1.46l-38.37-23.9c-2.12-1.32-2.77-4.11-1.46-6.24h0c1.32-2.13,4.1-2.78,6.22-1.46l38.38,23.9c2.12,1.32,2.77,4.11,1.46,6.24Z"/><path class="cls-2" d="m1159.6,1157.42h0c-1.01,2.29-3.68,3.33-5.96,2.31l-41.29-18.35c-2.28-1.01-3.31-3.69-2.3-5.98h0c1.01-2.29,3.68-3.33,5.96-2.31l41.29,18.35c2.28,1.01,3.31,3.69,2.3,5.98Z"/><path class="cls-1" d="m1487.14,1708.85h0c.52-2.45,2.91-4.01,5.35-3.5l44.18,9.38c2.44.52,4,2.92,3.48,5.38h0c-.52,2.45-2.91,4.02-5.35,3.5l-44.18-9.39c-2.44-.52-4-2.92-3.48-5.38Z"/><path class="cls-1" d="m213.32,1832.9h0c2.14,1.29,2.82,4.08,1.54,6.22l-23.3,38.84c-1.29,2.15-4.06,2.84-6.2,1.55h0c-2.13-1.29-2.82-4.08-1.54-6.22l23.3-38.84c1.29-2.14,4.06-2.84,6.2-1.55Z"/><path class="cls-5" d="m1422.79,94.14h0c-1.79,1.75-4.64,1.71-6.39-.08l-31.51-32.48c-1.74-1.79-1.7-4.66.08-6.41h0c1.79-1.75,4.65-1.71,6.39.08l31.5,32.48c1.74,1.79,1.7,4.66-.09,6.41Z"/><path class="cls-1" d="m655.49,1977.6h0c-2.14-1.28-2.84-4.07-1.55-6.22l23.19-38.91c1.28-2.15,4.05-2.85,6.19-1.56h0c2.14,1.28,2.84,4.07,1.55,6.22l-23.19,38.91c-1.28,2.15-4.05,2.85-6.19,1.56Z"/><path class="cls-6" d="m929.33,1010.64h0c2.47.34,4.2,2.63,3.86,5.11l-6.16,44.92c-.34,2.48-2.62,4.22-5.09,3.87h0c-2.47-.34-4.2-2.63-3.86-5.11l6.16-44.92c.34-2.48,2.62-4.22,5.09-3.87Z"/><path class="cls-3" d="m1809.09,1715.75h0c-1.22-2.18-.44-4.95,1.74-6.17l39.42-22.11c2.18-1.22,4.93-.44,6.15,1.75h0c1.22,2.19.44,4.95-1.74,6.17l-39.42,22.11c-2.18,1.22-4.93.44-6.14-1.75Z"/><path class="cls-3" d="m1943.86,1622.05h0c-.39-2.47,1.3-4.79,3.76-5.18l44.61-7.03c2.46-.39,4.77,1.3,5.16,3.77h0c.39,2.48-1.3,4.8-3.76,5.18l-44.61,7.03c-2.46.39-4.77-1.3-5.16-3.78Z"/><path class="cls-6" d="m321.71,254.51h0c-2.47-.32-4.22-2.59-3.91-5.07l5.72-44.98c.32-2.48,2.58-4.24,5.05-3.92h0c2.47.32,4.22,2.59,3.91,5.07l-5.72,44.98c-.32,2.48-2.58,4.24-5.05,3.92Z"/><path class="cls-6" d="m1121.53,1032.01h0c1.61-1.91,4.46-2.15,6.36-.53l34.46,29.31c1.9,1.62,2.14,4.48.53,6.39h0c-1.61,1.91-4.46,2.15-6.36.53l-34.46-29.31c-1.9-1.62-2.14-4.48-.53-6.39Z"/><path class="cls-3" d="m1763.32,1591.92h0c1.64,1.89,1.45,4.75-.42,6.4l-33.99,29.85c-1.88,1.65-4.73,1.46-6.37-.43h0c-1.64-1.89-1.45-4.75.43-6.4l33.99-29.85c1.88-1.65,4.73-1.46,6.37.43Z"/><path class="cls-5" d="m669.59,1508.03h0c-1.06-2.26-.1-4.97,2.15-6.04l40.83-19.36c2.25-1.07,4.95-.1,6.01,2.16h0c1.06,2.26.1,4.97-2.15,6.04l-40.84,19.36c-2.25,1.07-4.95.1-6.01-2.17Z"/><path class="cls-2" d="m703.15,810.78h0c-1.62,1.9-4.47,2.13-6.36.51l-34.36-29.42c-1.9-1.63-2.12-4.49-.51-6.39h0c1.62-1.91,4.47-2.13,6.37-.51l34.36,29.42c1.9,1.63,2.12,4.49.51,6.39Z"/><path class="cls-5" d="m782.04,61.59h0c-.94-2.32.17-4.96,2.48-5.91l41.83-17.08c2.31-.94,4.94.17,5.88,2.49h0c.94,2.32-.17,4.96-2.48,5.91l-41.83,17.08c-2.31.94-4.94-.17-5.88-2.49Z"/><path class="cls-2" d="m436.06,1695.01h0c.34,2.48-1.4,4.77-3.87,5.1l-44.75,6.09c-2.47.34-4.75-1.4-5.08-3.89h0c-.34-2.48,1.4-4.76,3.87-5.1l44.75-6.09c2.47-.34,4.74,1.4,5.08,3.88Z"/><path class="cls-2" d="m204.08,1771.24h0c2.49.02,4.5,2.06,4.48,4.55l-.36,45.38c-.02,2.5-2.06,4.5-4.55,4.48h0c-2.49-.02-4.5-2.06-4.48-4.55l.36-45.38c.02-2.49,2.06-4.5,4.55-4.48Z"/><path class="cls-5" d="m959.64,122.08h0c.59,2.43-.88,4.89-3.31,5.49l-43.85,10.83c-2.42.6-4.87-.89-5.46-3.32h0c-.59-2.43.89-4.89,3.31-5.48l43.85-10.83c2.42-.6,4.87.89,5.46,3.32Z"/><path class="cls-6" d="m148.72,443.19h0c2.47.38,4.15,2.7,3.77,5.18l-6.91,44.81c-.38,2.48-2.69,4.17-5.15,3.79h0c-2.46-.38-4.15-2.7-3.77-5.17l6.91-44.81c.38-2.48,2.69-4.17,5.15-3.79Z"/><path class="cls-2" d="m1188.8,1672.25h0c1.85-1.68,4.7-1.54,6.38.32l30.29,33.63c1.67,1.86,1.53,4.72-.32,6.4h0c-1.85,1.68-4.7,1.54-6.38-.32l-30.29-33.63c-1.67-1.86-1.53-4.72.32-6.4Z"/><path class="cls-5" d="m1109.43,79.01h0c-2.18,1.22-4.93.44-6.14-1.75l-22.03-39.58c-1.22-2.18-.44-4.95,1.74-6.17h0c2.18-1.22,4.93-.44,6.14,1.74l22.03,39.58c1.22,2.19.44,4.95-1.74,6.17Z"/><path class="cls-3" d="m814.83,1332.25h0c-2.28-1.02-3.29-3.71-2.27-5.99l18.47-41.38c1.02-2.28,3.69-3.31,5.97-2.28h0c2.28,1.02,3.29,3.71,2.27,5.99l-18.47,41.38c-1.02,2.28-3.69,3.31-5.97,2.28Z"/><path class="cls-3" d="m1069.71,479.89h0c2.45-.45,4.8,1.19,5.25,3.65l8.05,44.62c.44,2.46-1.18,4.82-3.64,5.27h0c-2.45.45-4.8-1.19-5.25-3.65l-8.05-44.61c-.44-2.47,1.18-4.82,3.64-5.27Z"/><path class="cls-3" d="m488.13,1180.83h0c-2.12,1.33-4.9.68-6.22-1.44l-23.92-38.46c-1.32-2.12-.68-4.92,1.44-6.25h0c2.12-1.33,4.9-.68,6.22,1.44l23.92,38.46c1.32,2.13.68,4.92-1.44,6.25Z"/><path class="cls-1" d="m1546.81,252.84h0c2.49.12,4.41,2.24,4.28,4.73l-2.26,45.32c-.13,2.49-2.25,4.41-4.74,4.29h0c-2.49-.13-4.41-2.25-4.28-4.74l2.27-45.32c.13-2.49,2.25-4.41,4.74-4.28Z"/><path class="cls-1" d="m.23,1018.44H.23c.36-2.48,2.65-4.19,5.12-3.83l44.68,6.57c2.47.36,4.18,2.67,3.81,5.14h0c-.36,2.48-2.65,4.19-5.12,3.83l-44.68-6.57c-2.47-.36-4.17-2.67-3.81-5.14Z"/><path class="cls-6" d="m1944.8,1255.56h0c-1.53-1.98-1.17-4.83.8-6.36l35.69-27.78c1.97-1.53,4.81-1.17,6.34.81h0c1.53,1.98,1.17,4.83-.8,6.36l-35.69,27.78c-1.97,1.53-4.81,1.17-6.33-.81Z"/><path class="cls-1" d="m83.4,882.2h0c-2.47-.34-4.2-2.63-3.86-5.11l6.15-44.92c.34-2.48,2.62-4.22,5.09-3.88h0c2.47.34,4.2,2.63,3.86,5.11l-6.15,44.92c-.34,2.48-2.62,4.22-5.09,3.88Z"/><path class="cls-5" d="m328.72,1621.96h0c2.48-.22,4.67,1.63,4.89,4.11l3.88,45.21c.21,2.48-1.63,4.67-4.11,4.89h0c-2.48.22-4.68-1.63-4.89-4.11l-3.88-45.21c-.21-2.48,1.63-4.67,4.11-4.88Z"/><path class="cls-1" d="m1812.33,894.29h0c-2.41-.64-3.85-3.12-3.21-5.55l11.56-43.83c.64-2.42,3.11-3.86,5.52-3.22h0c2.41.64,3.85,3.12,3.21,5.54l-11.56,43.83c-.64,2.42-3.11,3.86-5.52,3.22Z"/><path class="cls-5" d="m1932.35,758.51h0c1.97-1.54,4.81-1.18,6.34.8l27.73,35.79c1.53,1.98,1.18,4.82-.79,6.36h0c-1.97,1.54-4.81,1.18-6.34-.8l-27.73-35.79c-1.53-1.98-1.18-4.82.79-6.36Z"/><path class="cls-4" d="m639.54,133.72h0c-1-2.29.04-4.97,2.32-5.97l41.35-18.22c2.28-1.01,4.95.04,5.95,2.33h0c1,2.29-.04,4.97-2.32,5.98l-41.35,18.22c-2.28,1-4.95-.04-5.95-2.33Z"/><path class="cls-5" d="m1258.72,1023.02h0c2.03,1.45,2.5,4.28,1.06,6.32l-26.21,36.92c-1.45,2.04-4.27,2.51-6.3,1.06h0c-2.03-1.45-2.5-4.28-1.06-6.32l26.21-36.93c1.45-2.04,4.27-2.51,6.3-1.06Z"/><path class="cls-6" d="m829.32,993.83h0c1.3,2.14.63,4.93-1.5,6.23l-38.53,23.65c-2.13,1.31-4.91.63-6.21-1.5h0c-1.3-2.14-.63-4.93,1.5-6.24l38.53-23.65c2.13-1.31,4.91-.63,6.21,1.5Z"/><path class="cls-1" d="m1229.18,1217.54h0c2.39-.73,4.91.63,5.63,3.02l13.09,43.4c.72,2.4-.62,4.93-3.01,5.66h0c-2.39.73-4.91-.63-5.63-3.02l-13.09-43.4c-.72-2.4.62-4.93,3.01-5.65Z"/><path class="cls-1" d="m624.88,700.22h0c2.44-.5,4.83,1.08,5.33,3.53l9.06,44.42c.5,2.45-1.07,4.85-3.52,5.35h0c-2.44.5-4.83-1.08-5.33-3.53l-9.06-44.42c-.5-2.45,1.07-4.85,3.52-5.35Z"/><path class="cls-1" d="m1877.03,1546.31h0c2.47.37,4.17,2.67,3.81,5.15l-6.61,44.85c-.36,2.48-2.66,4.19-5.13,3.82h0c-2.47-.37-4.17-2.67-3.81-5.15l6.61-44.85c.36-2.48,2.66-4.19,5.13-3.82Z"/><path class="cls-6" d="m578.84,472.23h0c-1.86,1.67-4.71,1.51-6.38-.35l-30.12-33.78c-1.66-1.87-1.5-4.73.35-6.4h0c1.86-1.67,4.71-1.51,6.37.35l30.12,33.78c1.66,1.87,1.51,4.73-.35,6.4Z"/><path class="cls-5" d="m1795.72,492.48h0c.76,2.38-.54,4.94-2.92,5.7l-43,13.85c-2.37.77-4.92-.55-5.68-2.93h0c-.76-2.39.55-4.94,2.92-5.7l43-13.85c2.38-.77,4.92.55,5.68,2.93Z"/><path class="cls-1" d="m1314.97,746.85h0c-.84-2.36.38-4.95,2.73-5.8l42.51-15.28c2.35-.84,4.93.38,5.77,2.74h0c.84,2.36-.38,4.95-2.73,5.8l-42.51,15.28c-2.35.84-4.93-.38-5.77-2.74Z"/><path class="cls-6" d="m1872.65,1490.68h0c-1.85,1.67-4.71,1.52-6.38-.34l-30.17-33.74c-1.67-1.86-1.51-4.73.34-6.4h0c1.85-1.67,4.71-1.52,6.38.34l30.17,33.74c1.66,1.86,1.51,4.73-.34,6.4Z"/><path class="cls-2" d="m1718.67,1208.1h0c2.41.63,3.86,3.11,3.23,5.53l-11.41,43.87c-.63,2.42-3.1,3.88-5.51,3.24h0c-2.41-.63-3.86-3.11-3.23-5.53l11.41-43.87c.63-2.42,3.1-3.87,5.51-3.24Z"/><path class="cls-6" d="m316.74,792.34h0c-1.38,2.09-4.18,2.66-6.26,1.27l-37.63-25.07c-2.08-1.39-2.65-4.2-1.27-6.29h0c1.38-2.09,4.18-2.65,6.26-1.27l37.62,25.07c2.08,1.38,2.64,4.2,1.27,6.28Z"/><path class="cls-2" d="m358.58,991.23h0c-1.2,2.2-3.94,3-6.13,1.8l-39.61-21.76c-2.19-1.2-2.99-3.96-1.8-6.15h0c1.2-2.2,3.94-3,6.13-1.8l39.62,21.76c2.19,1.2,2.99,3.96,1.79,6.15Z"/><path class="cls-3" d="m1668.2,618.47h0c-.84,2.36-3.43,3.58-5.78,2.73l-42.48-15.37c-2.35-.85-3.56-3.45-2.72-5.8h0c.85-2.36,3.43-3.58,5.78-2.73l42.48,15.37c2.34.85,3.56,3.45,2.72,5.8Z"/><path class="cls-2" d="m1489.37,1010.77h0c-1.98,1.53-4.81,1.15-6.33-.83l-27.52-35.95c-1.52-1.98-1.15-4.83.83-6.36h0c1.98-1.53,4.81-1.15,6.33.83l27.52,35.95c1.52,1.99,1.15,4.83-.83,6.36Z"/><path class="cls-5" d="m1943.11,371.35h0c1.6,1.92,1.34,4.78-.57,6.39l-34.64,29.08c-1.91,1.61-4.76,1.35-6.36-.57h0c-1.6-1.92-1.35-4.78.57-6.39l34.65-29.08c1.91-1.6,4.76-1.35,6.36.57Z"/><path class="cls-3" d="m1132.33,1571.61h0c-.64,2.42-3.11,3.87-5.52,3.23l-43.66-11.56c-2.41-.64-3.85-3.12-3.21-5.54h0c.63-2.42,3.1-3.87,5.52-3.23l43.66,11.56c2.41.64,3.85,3.12,3.22,5.54Z"/><path class="cls-4" d="m25.79,1386.69h0c1.15-2.22,3.88-3.08,6.09-1.93l40.05,20.94c2.21,1.16,3.07,3.9,1.92,6.12h0c-1.15,2.22-3.88,3.08-6.09,1.93l-40.05-20.94c-2.21-1.16-3.07-3.9-1.92-6.12Z"/><path class="cls-3" d="m133.43,1246.15h0c2.36-.82,4.93.44,5.74,2.81l14.73,42.86c.81,2.37-.44,4.95-2.8,5.77h0c-2.36.82-4.93-.44-5.74-2.81l-14.73-42.86c-.81-2.37.44-4.95,2.8-5.76Z"/><path class="cls-4" d="m1431.91,246.58h0c-2.24,1.1-4.94.17-6.04-2.08l-19.86-40.72c-1.1-2.25-.17-4.96,2.07-6.07h0c2.24-1.1,4.94-.17,6.04,2.08l19.86,40.72c1.1,2.25.17,4.96-2.07,6.07Z"/><path class="cls-5" d="m842.78,1447.43h0c1.77-1.76,4.63-1.75,6.39.02l31.82,32.17c1.76,1.78,1.75,4.65-.02,6.41h0c-1.77,1.77-4.63,1.76-6.39-.02l-31.82-32.17c-1.76-1.78-1.75-4.65.02-6.41Z"/><path class="cls-3" d="m774.11,1185.68h0c2.2,1.17,3.04,3.92,1.87,6.13l-21.16,40.06c-1.17,2.21-3.9,3.05-6.1,1.88h0c-2.2-1.17-3.04-3.92-1.87-6.13l21.16-40.06c1.17-2.21,3.9-3.05,6.1-1.88Z"/><path class="cls-1" d="m197.43,1957.9h0c-.69,2.41-3.19,3.8-5.59,3.11l-43.41-12.48c-2.4-.69-3.79-3.2-3.1-5.61h0c.69-2.41,3.19-3.8,5.59-3.11l43.41,12.49c2.4.69,3.78,3.2,3.1,5.61Z"/><path class="cls-1" d="m1176.37,1965.47h0c.78,2.38-.51,4.94-2.88,5.73l-42.89,14.18c-2.37.78-4.92-.51-5.7-2.89h0c-.78-2.38.51-4.94,2.87-5.73l42.89-14.18c2.37-.78,4.92.51,5.7,2.89Z"/><path class="cls-2" d="m377.2,1181.59h0c2.49-.2,4.67,1.65,4.86,4.14l3.63,45.24c.2,2.49-1.65,4.66-4.14,4.86h0c-2.49.2-4.66-1.65-4.86-4.14l-3.62-45.23c-.2-2.49,1.65-4.66,4.14-4.86Z"/><path class="cls-6" d="m1795.33,377.34h0c-2.49-.12-4.41-2.24-4.29-4.73l2.2-45.33c.12-2.49,2.24-4.41,4.73-4.29h0c2.49.12,4.41,2.24,4.29,4.73l-2.2,45.33c-.12,2.49-2.24,4.41-4.73,4.29Z"/><path class="cls-5" d="m529.59,565.69h0c1.39-2.08,4.2-2.63,6.27-1.23l37.46,25.33c2.07,1.4,2.62,4.22,1.22,6.29h0c-1.39,2.08-4.2,2.63-6.27,1.23l-37.45-25.32c-2.07-1.4-2.62-4.22-1.22-6.29Z"/><path class="cls-6" d="m1949.45,820.4h0c2.19-1.2,4.93-.39,6.13,1.81l21.62,39.81c1.19,2.2.39,4.95-1.8,6.15h0c-2.19,1.2-4.93.39-6.13-1.81l-21.62-39.81c-1.19-2.2-.39-4.95,1.8-6.15Z"/><path class="cls-3" d="m451.96,1858.77h0c-1.47-2.02-1.04-4.86.98-6.34l36.44-26.77c2.01-1.48,4.84-1.04,6.31.98h0c1.47,2.02,1.04,4.86-.98,6.34l-36.45,26.77c-2.01,1.48-4.84,1.04-6.31-.98Z"/><path class="cls-3" d="m1546.01,635.62h0c-2.32-.92-3.45-3.56-2.53-5.89l16.63-42.15c.92-2.33,3.54-3.47,5.86-2.55h0c2.32.92,3.45,3.56,2.53,5.89l-16.63,42.15c-.92,2.33-3.54,3.47-5.86,2.55Z"/><path class="cls-5" d="m736.57,1716.27h0c2.05-1.43,4.86-.92,6.28,1.14l25.73,37.26c1.42,2.06.91,4.88-1.14,6.31h0c-2.05,1.43-4.86.92-6.28-1.14l-25.73-37.26c-1.42-2.06-.91-4.88,1.14-6.31Z"/><path class="cls-3" d="m37.66,1474.37h0c2.42.59,3.91,3.04,3.33,5.48l-10.63,44.07c-.59,2.43-3.03,3.93-5.45,3.34h0c-2.42-.59-3.91-3.04-3.33-5.47l10.63-44.07c.59-2.43,3.03-3.93,5.45-3.34Z"/><path class="cls-3" d="m1868.54,1939.67h0c-2.47-.37-4.17-2.68-3.8-5.15l6.66-44.85c.37-2.48,2.67-4.18,5.13-3.82h0c2.47.37,4.17,2.68,3.8,5.15l-6.66,44.85c-.37,2.48-2.67,4.19-5.13,3.82Z"/><path class="cls-3" d="m34.8,1818.93h0c.47-2.46,2.83-4.08,5.28-3.61l44.37,8.44c2.45.47,4.06,2.84,3.6,5.3h0c-.47,2.46-2.83,4.08-5.28,3.61l-44.37-8.44c-2.45-.47-4.06-2.84-3.6-5.3Z"/><path class="cls-4" d="m397.08,1030.19h0c2-1.49,4.83-1.06,6.31.95l26.82,36.48c1.48,2.01,1.06,4.85-.95,6.34h0c-2.01,1.49-4.83,1.06-6.31-.96l-26.82-36.47c-1.48-2.02-1.06-4.85.95-6.34Z"/><path class="cls-6" d="m1013.22,1545.36h0c-1.65,1.88-4.51,2.05-6.37.39l-33.82-30.04c-1.87-1.66-2.04-4.52-.39-6.4h0c1.65-1.88,4.51-2.05,6.37-.39l33.82,30.04c1.87,1.66,2.04,4.52.39,6.4Z"/><path class="cls-6" d="m1259.2,930.02h0c2.49-.04,4.55,1.95,4.58,4.45l.69,45.38c.04,2.49-1.95,4.55-4.44,4.58h0c-2.49.04-4.55-1.95-4.58-4.45l-.69-45.38c-.04-2.49,1.95-4.55,4.44-4.58Z"/><path class="cls-3" d="m497.71,1359.04h0c.66,2.41-.76,4.91-3.16,5.57l-43.56,11.96c-2.4.66-4.89-.76-5.55-3.18h0c-.66-2.41.76-4.91,3.16-5.57l43.56-11.96c2.4-.66,4.89.76,5.55,3.18Z"/><path class="cls-3" d="m1309.05,1343.13h0c2.34-.85,4.93.37,5.78,2.72l15.34,42.65c.85,2.35-.37,4.95-2.71,5.81h0c-2.34.85-4.93-.37-5.78-2.72l-15.34-42.64c-.85-2.36.37-4.95,2.71-5.81Z"/><path class="cls-6" d="m1702.08,595.28h0c-.94-2.32.16-4.97,2.47-5.91l41.8-17.16c2.31-.95,4.94.16,5.89,2.48h0c.94,2.32-.16,4.96-2.47,5.91l-41.8,17.16c-2.31.95-4.95-.16-5.89-2.48Z"/><path class="cls-6" d="m658.3,69.12h0c-2.18,1.21-4.93.41-6.13-1.78l-21.79-39.71c-1.2-2.19-.41-4.95,1.78-6.16h0c2.19-1.21,4.93-.41,6.13,1.78l21.79,39.72c1.2,2.19.41,4.95-1.77,6.16Z"/><path class="cls-2" d="m739.74,65.01h0c-.98,2.3-3.64,3.36-5.93,2.38l-41.49-17.89c-2.29-.99-3.35-3.65-2.37-5.95h0c.98-2.3,3.64-3.37,5.93-2.38l41.49,17.89c2.29.99,3.35,3.65,2.37,5.96Z"/><path class="cls-6" d="m1125.31,1868.2h0c-1.9-1.61-2.15-4.48-.54-6.39l29.12-34.65c1.61-1.91,4.46-2.16,6.36-.54h0c1.9,1.61,2.15,4.48.54,6.39l-29.12,34.66c-1.61,1.91-4.46,2.15-6.36.54Z"/><path class="cls-1" d="m413.21,916.75h0c-1.86-1.67-2.02-4.53-.36-6.4l30.09-33.81c1.66-1.87,4.52-2.03,6.38-.36h0c1.86,1.67,2.02,4.53.36,6.4l-30.09,33.81c-1.66,1.87-4.52,2.03-6.38.36Z"/><path class="cls-2" d="m334.04,327.02h0c.38-2.47,2.68-4.17,5.15-3.79l44.63,6.89c2.47.38,4.15,2.69,3.78,5.17h0c-.38,2.48-2.68,4.17-5.15,3.79l-44.63-6.89c-2.46-.38-4.16-2.69-3.78-5.17Z"/><path class="cls-1" d="m666.1,1792.81h0c.13-2.5,2.27-4.42,4.77-4.29l45.05,2.42c2.5.14,4.42,2.27,4.28,4.77h0c-.13,2.5-2.27,4.42-4.77,4.29l-45.05-2.42c-2.5-.13-4.42-2.27-4.28-4.77Z"/><path class="cls-6" d="m463.86,1438.55h0c-.18,2.5-2.35,4.38-4.85,4.2l-45-3.23c-2.5-.18-4.38-2.35-4.2-4.84h0c.18-2.5,2.35-4.38,4.85-4.2l45,3.23c2.5.18,4.38,2.35,4.2,4.84Z"/><path class="cls-1" d="m268.09,1256.71h0c.56,2.44-.96,4.87-3.39,5.43l-44.01,10.17c-2.43.56-4.85-.96-5.41-3.4h0c-.56-2.44.96-4.88,3.39-5.44l44-10.18c2.43-.56,4.85.96,5.41,3.4Z"/><path class="cls-3" d="m1527.15,1979.85h0c-1.74,1.8-4.6,1.83-6.39.09l-32.36-31.62c-1.79-1.75-1.82-4.62-.09-6.41h0c1.74-1.8,4.6-1.83,6.38-.09l32.36,31.62c1.79,1.75,1.83,4.62.09,6.41Z"/><path class="cls-6" d="m1725.6,226.25h0c2.44-.51,4.83,1.06,5.34,3.51l9.2,44.39c.51,2.45-1.06,4.85-3.5,5.36h0c-2.44.51-4.83-1.06-5.34-3.51l-9.2-44.39c-.51-2.45,1.06-4.85,3.5-5.36Z"/><path class="cls-5" d="m1076.33,1776.58h0c1.69-1.84,4.55-1.95,6.38-.24l33.11,30.83c1.83,1.7,1.94,4.57.24,6.41h0c-1.69,1.84-4.55,1.94-6.38.24l-33.11-30.83c-1.83-1.7-1.94-4.57-.24-6.41Z"/><path class="cls-1" d="m487.2,438.16h0c-.89,2.34-3.5,3.51-5.83,2.61l-42.17-16.22c-2.33-.89-3.49-3.52-2.6-5.86h0c.89-2.34,3.5-3.51,5.83-2.61l42.17,16.21c2.33.9,3.49,3.52,2.6,5.86Z"/><path class="cls-5" d="m1740.38,788.7h0c2.34.87,3.53,3.48,2.67,5.83l-15.67,42.53c-.87,2.35-3.46,3.55-5.8,2.68h0c-2.34-.87-3.53-3.48-2.67-5.83l15.67-42.53c.86-2.35,3.46-3.55,5.8-2.68Z"/><path class="cls-6" d="m1771.17,1217.07h0c-1.38-2.08-.82-4.9,1.26-6.29l37.59-25.12c2.08-1.39,4.88-.82,6.26,1.26h0c1.38,2.08.82,4.9-1.26,6.29l-37.59,25.12c-2.08,1.39-4.88.82-6.26-1.26Z"/><path class="cls-6" d="m1080.89,1670.57h0c2.37-.78,4.92.52,5.7,2.9l14.04,43.09c.77,2.38-.52,4.94-2.89,5.72h0c-2.37.78-4.92-.52-5.69-2.9l-14.04-43.09c-.77-2.38.52-4.94,2.89-5.72Z"/><path class="cls-4" d="m1176.15,956.22h0c2.13,1.29,2.82,4.08,1.53,6.22l-23.32,38.83c-1.29,2.15-4.06,2.84-6.2,1.54h0c-2.14-1.29-2.82-4.08-1.53-6.23l23.32-38.83c1.29-2.14,4.06-2.84,6.2-1.54Z"/><path class="cls-4" d="m592.98,1960.44h0c-.46,2.46-2.82,4.08-5.27,3.62l-44.38-8.35c-2.45-.46-4.06-2.83-3.61-5.29h0c.46-2.46,2.82-4.08,5.27-3.62l44.38,8.34c2.45.46,4.07,2.83,3.61,5.29Z"/><path class="cls-1" d="m1840.31,285.79h0c-1.33,2.12-4.12,2.75-6.23,1.42l-38.2-24.18c-2.11-1.34-2.74-4.14-1.41-6.25h0c1.33-2.12,4.12-2.75,6.23-1.42l38.2,24.18c2.11,1.33,2.74,4.13,1.41,6.25Z"/><path class="cls-3" d="m186.74,360.24h0c.17-2.5,2.33-4.39,4.83-4.22l45.02,3.07c2.5.17,4.38,2.33,4.21,4.83h0c-.17,2.5-2.33,4.39-4.83,4.22l-45.01-3.07c-2.5-.17-4.38-2.33-4.22-4.83Z"/><path class="cls-1" d="m1189.89,894.19h0c.11-2.5,2.22-4.45,4.72-4.34l45.08,1.94c2.5.11,4.44,2.22,4.34,4.72h0c-.11,2.5-2.22,4.44-4.72,4.34l-45.08-1.93c-2.5-.11-4.44-2.22-4.33-4.72Z"/><path class="cls-1" d="m1916.39,1114.31h0c1.21,2.19.43,4.95-1.75,6.17l-39.46,22.05c-2.18,1.22-4.93.43-6.14-1.76h0c-1.21-2.19-.43-4.95,1.75-6.17l39.46-22.05c2.18-1.22,4.93-.43,6.14,1.76Z"/><path class="cls-3" d="m283.32,1414.97h0c-2.44-.53-3.99-2.94-3.46-5.39l9.54-44.32c.53-2.45,2.93-4,5.37-3.47h0c2.44.53,3.99,2.94,3.46,5.39l-9.54,44.32c-.53,2.45-2.93,4-5.37,3.47Z"/><path class="cls-4" d="m910.9,1201.13h0c2.45.45,4.07,2.82,3.62,5.28l-8.16,44.6c-.45,2.46-2.8,4.09-5.26,3.64h0c-2.45-.45-4.08-2.82-3.63-5.28l8.17-44.6c.45-2.46,2.8-4.09,5.26-3.64Z"/><path class="cls-3" d="m469.59,1746.69h0c-2.26-1.06-3.24-3.76-2.18-6.03l19.12-41.08c1.06-2.27,3.74-3.25,6-2.19h0c2.26,1.06,3.23,3.76,2.18,6.03l-19.12,41.08c-1.06,2.27-3.74,3.25-6,2.19Z"/><path class="cls-5" d="m888.31,160.01h0c2.23,1.12,3.14,3.84,2.02,6.08l-20.17,40.57c-1.11,2.24-3.82,3.15-6.06,2.03h0c-2.23-1.12-3.14-3.84-2.02-6.08l20.17-40.57c1.11-2.24,3.82-3.15,6.06-2.03Z"/><path class="cls-6" d="m399.57,1483.37h0c2.15-1.26,4.92-.53,6.17,1.64l22.74,39.18c1.26,2.16.53,4.94-1.63,6.2h0c-2.15,1.26-4.92.53-6.18-1.63l-22.74-39.18c-1.26-2.16-.53-4.94,1.63-6.2Z"/><path class="cls-1" d="m1396.71,1041.12h0c2.3.96,3.4,3.61,2.44,5.93l-17.27,41.89c-.95,2.31-3.59,3.41-5.9,2.45h0c-2.3-.96-3.4-3.61-2.44-5.92l17.27-41.9c.95-2.31,3.59-3.41,5.9-2.45Z"/><path class="cls-5" d="m92.81,743.12h0c-.11,2.5-2.24,4.44-4.74,4.32l-45.07-2.1c-2.5-.12-4.43-2.24-4.32-4.74h0c.12-2.5,2.24-4.44,4.74-4.32l45.07,2.1c2.5.12,4.43,2.24,4.32,4.74Z"/><path class="cls-3" d="m1011.7,1292.55h0c.55,2.44-.97,4.87-3.4,5.43l-44.03,10.05c-2.43.56-4.85-.98-5.4-3.42h0c-.55-2.44.97-4.87,3.4-5.43l44.03-10.05c2.43-.56,4.85.97,5.4,3.42Z"/><path class="cls-5" d="m340.54,1435.42h0c-1.4-2.07-.86-4.89,1.2-6.3l37.38-25.44c2.06-1.41,4.87-.87,6.27,1.21h0c1.4,2.07.86,4.89-1.2,6.3l-37.38,25.44c-2.06,1.41-4.87.86-6.27-1.21Z"/><path class="cls-1" d="m603.28,1398.58h0c-1.66,1.87-4.52,2.03-6.38.36l-33.69-30.19c-1.86-1.67-2.02-4.53-.36-6.4h0c1.66-1.87,4.51-2.03,6.38-.36l33.69,30.19c1.86,1.67,2.02,4.53.36,6.4Z"/><path class="cls-3" d="m389.97,505.37h0c-2.49-.08-4.45-2.16-4.37-4.66l1.45-45.36c.08-2.49,2.16-4.45,4.66-4.37h0c2.49.08,4.45,2.16,4.37,4.66l-1.45,45.36c-.08,2.49-2.16,4.45-4.66,4.37Z"/><path class="cls-2" d="m632.72,896.16h0c2.41.65,3.83,3.14,3.18,5.56l-11.8,43.77c-.65,2.42-3.13,3.85-5.54,3.19h0c-2.41-.66-3.83-3.15-3.18-5.56l11.8-43.77c.65-2.42,3.13-3.85,5.54-3.19Z"/><path class="cls-5" d="m537.3,1302.42h0c-2.4-.68-3.8-3.18-3.12-5.59l12.22-43.65c.68-2.41,3.17-3.82,5.57-3.14h0c2.4.68,3.8,3.18,3.12,5.59l-12.22,43.65c-.67,2.41-3.17,3.82-5.57,3.14Z"/><path class="cls-6" d="m1882.12,1020.57h0c-.61,2.43-3.06,3.9-5.48,3.29l-43.79-11.07c-2.42-.61-3.89-3.07-3.28-5.5h0c.61-2.43,3.06-3.9,5.48-3.29l43.79,11.07c2.42.61,3.89,3.07,3.28,5.5Z"/><path class="cls-6" d="m784.23,1869.09h0c-1.99,1.51-4.82,1.12-6.33-.88l-27.25-36.16c-1.5-2-1.11-4.84.88-6.35h0c1.99-1.51,4.82-1.12,6.32.88l27.25,36.16c1.5,2,1.11,4.84-.88,6.35Z"/><path class="cls-3" d="m1196.08,617.64h0c-1.15,2.22-3.88,3.08-6.09,1.92l-40.03-20.98c-2.21-1.16-3.07-3.9-1.91-6.12h0c1.15-2.22,3.88-3.08,6.09-1.92l40.03,20.98c2.21,1.16,3.07,3.9,1.91,6.12Z"/><path class="cls-3" d="m1996.74,1159.37h0c-.8,2.37-3.37,3.64-5.73,2.83l-42.74-14.65c-2.36-.81-3.62-3.39-2.82-5.75h0c.81-2.37,3.37-3.64,5.73-2.83l42.73,14.65c2.36.81,3.62,3.39,2.82,5.76Z"/><path class="cls-4" d="m638.45,1361.02h0c-.11-2.5,1.83-4.61,4.33-4.72l45.08-1.94c2.5-.11,4.62,1.83,4.72,4.34h0c.11,2.5-1.83,4.61-4.33,4.72l-45.08,1.94c-2.5.11-4.62-1.83-4.72-4.34Z"/><path class="cls-6" d="m1628.61,1310.52h0c-.24-2.49,1.58-4.71,4.07-4.95l44.9-4.45c2.49-.25,4.72,1.58,4.96,4.07h0c.25,2.49-1.57,4.71-4.06,4.95l-44.9,4.45c-2.49.25-4.72-1.58-4.96-4.07Z"/><path class="cls-6" d="m1943.5,598.86h0c-.92-2.33.22-4.96,2.54-5.88l42-16.66c2.32-.92,4.94.22,5.86,2.55h0c.92,2.33-.22,4.96-2.54,5.88l-42,16.66c-2.32.92-4.94-.22-5.86-2.55Z"/><path class="cls-5" d="m1495.9,1893.1h0c-2.24,1.11-4.94.18-6.05-2.07l-19.94-40.68c-1.1-2.25-.18-4.97,2.06-6.07h0c2.24-1.1,4.94-.18,6.05,2.07l19.94,40.68c1.1,2.25.18,4.97-2.06,6.07Z"/><path class="cls-2" d="m1354.03,1586.35h0c2.33.9,3.49,3.52,2.6,5.86l-16.16,42.34c-.89,2.34-3.5,3.51-5.83,2.61h0c-2.33-.9-3.49-3.52-2.6-5.86l16.16-42.34c.89-2.34,3.5-3.51,5.83-2.61Z"/><path class="cls-1" d="m1912.77,1671.74h0c-1.85,1.68-4.71,1.52-6.38-.34l-30.21-33.7c-1.67-1.86-1.52-4.73.33-6.4h0c1.85-1.67,4.71-1.52,6.38.34l30.21,33.7c1.67,1.86,1.52,4.73-.34,6.4Z"/><path class="cls-6" d="m1447.13,527.65h0c.86-2.35,3.46-3.55,5.8-2.68l42.35,15.73c2.34.87,3.54,3.48,2.67,5.82h0c-.87,2.35-3.46,3.55-5.8,2.68l-42.35-15.73c-2.34-.87-3.53-3.48-2.67-5.82Z"/><path class="cls-6" d="m98.12,38.66h0c-1.71-1.82-1.62-4.69.2-6.41L131.25,1.23c1.82-1.71,4.68-1.62,6.38.2h0c1.71,1.83,1.61,4.69-.2,6.41l-32.93,31.03c-1.82,1.71-4.68,1.62-6.38-.2Z"/><path class="cls-6" d="m424.44,601.51h0c.64-2.42,3.12-3.86,5.53-3.21l43.62,11.71c2.41.65,3.84,3.13,3.2,5.55h0c-.64,2.42-3.12,3.86-5.53,3.21l-43.62-11.71c-2.41-.65-3.84-3.13-3.2-5.55Z"/><path class="cls-6" d="m379.45,1954.96h0c.47-2.46,2.83-4.07,5.28-3.6l44.36,8.5c2.45.47,4.05,2.84,3.59,5.3h0c-.47,2.46-2.83,4.07-5.28,3.6l-44.36-8.5c-2.45-.47-4.06-2.84-3.59-5.31Z"/><path class="cls-2" d="m206.48,632.84h0c-.84,2.36-3.43,3.58-5.78,2.73l-42.5-15.33c-2.35-.85-3.57-3.44-2.72-5.8h0c.84-2.36,3.43-3.58,5.78-2.74l42.49,15.33c2.35.85,3.57,3.44,2.72,5.8Z"/><path class="cls-1" d="m96.92,1854.39h0c2.14-1.28,4.91-.58,6.19,1.57l23.12,38.95c1.28,2.15.58,4.93-1.57,6.22h0c-2.14,1.28-4.91.58-6.19-1.57l-23.12-38.95c-1.28-2.15-.58-4.93,1.57-6.22Z"/><path class="cls-6" d="m1944.61,1845.61h0c-1.27,2.15-4.05,2.86-6.19,1.58l-38.81-23.17c-2.14-1.28-2.85-4.06-1.57-6.21h0c1.27-2.15,4.04-2.86,6.19-1.58l38.81,23.17c2.14,1.28,2.85,4.06,1.57,6.22Z"/><path class="cls-4" d="m1563.08,687.97h0c-2.44-.53-3.99-2.94-3.46-5.39l9.5-44.33c.52-2.45,2.93-4.01,5.37-3.48h0c2.44.53,3.99,2.94,3.46,5.39l-9.51,44.33c-.52,2.45-2.93,4.01-5.36,3.48Z"/><path class="cls-5" d="m1724.83,67.78h0c-2.37-.79-3.65-3.35-2.87-5.73l14.19-43.05c.78-2.38,3.34-3.67,5.71-2.88h0c2.37.79,3.65,3.35,2.87,5.73l-14.19,43.05c-.78,2.38-3.34,3.67-5.7,2.88Z"/><path class="cls-2" d="m656.1,389.32h0c2.48-.23,4.68,1.6,4.91,4.09l4.12,45.19c.22,2.48-1.6,4.68-4.08,4.91h0c-2.48.23-4.68-1.6-4.91-4.09l-4.12-45.19c-.23-2.48,1.6-4.68,4.08-4.91Z"/><path class="cls-6" d="m1072.33,793.66h0c-2.39-.71-3.76-3.23-3.06-5.63l12.76-43.5c.7-2.4,3.21-3.78,5.61-3.07h0c2.39.71,3.76,3.23,3.06,5.63l-12.76,43.5c-.7,2.4-3.21,3.78-5.61,3.07Z"/><path class="cls-5" d="m1671.87,1828.12h0c.65-2.42,3.13-3.85,5.54-3.19l43.58,11.86c2.41.65,3.83,3.15,3.18,5.56h0c-.65,2.42-3.13,3.84-5.54,3.19l-43.58-11.86c-2.41-.66-3.83-3.15-3.18-5.56Z"/><path class="cls-6" d="m550.75,1003.56h0c.62-2.42,3.08-3.89,5.5-3.26l43.73,11.29c2.41.62,3.87,3.1,3.25,5.52h0c-.62,2.43-3.08,3.89-5.5,3.26l-43.73-11.29c-2.41-.62-3.87-3.09-3.25-5.52Z"/><path class="cls-1" d="m301.49,696.83h0c-1.08-2.26-.14-4.97,2.1-6.05l40.67-19.71c2.24-1.09,4.94-.14,6.03,2.11h0c1.09,2.26.14,4.97-2.1,6.05l-40.67,19.71c-2.25,1.09-4.94.14-6.03-2.11Z"/><path class="cls-2" d="m99.45,269.59h0c1.71,1.83,1.62,4.69-.2,6.41l-32.92,31.04c-1.82,1.72-4.67,1.63-6.38-.2h0c-1.71-1.82-1.62-4.69.2-6.41l32.91-31.04c1.82-1.72,4.67-1.63,6.38.2Z"/><path class="cls-4" d="m926.74,483.93h0c2.25,1.07,3.22,3.77,2.16,6.03l-19.24,41.02c-1.06,2.27-3.75,3.24-6.01,2.17h0c-2.26-1.07-3.22-3.77-2.16-6.03l19.24-41.02c1.06-2.27,3.75-3.24,6.01-2.17Z"/><path class="cls-5" d="m542.7,772.85h0c.43-2.47,2.77-4.11,5.23-3.68l44.47,7.88c2.46.44,4.1,2.79,3.66,5.25h0c-.43,2.47-2.77,4.11-5.23,3.68l-44.47-7.88c-2.46-.43-4.1-2.79-3.66-5.25Z"/><path class="cls-3" d="m1369.23,201.7h0c-1.23,2.18-3.99,2.93-6.16,1.69l-39.23-22.46c-2.16-1.24-2.92-4.01-1.68-6.18h0c1.23-2.18,3.99-2.93,6.16-1.69l39.23,22.46c2.17,1.24,2.92,4.01,1.69,6.18Z"/><path class="cls-6" d="m1728,1383.47h0c.57,2.44-.95,4.88-3.38,5.44l-43.99,10.26c-2.43.57-4.85-.95-5.42-3.39h0c-.56-2.44.95-4.88,3.38-5.44l43.99-10.26c2.43-.57,4.85.95,5.42,3.39Z"/><path class="cls-6" d="m1171.08,690.63h0c.52,2.45-1.03,4.86-3.47,5.39l-44.15,9.51c-2.44.52-4.84-1.03-5.36-3.48h0c-.52-2.45,1.03-4.86,3.47-5.39l44.15-9.51c2.44-.53,4.84,1.03,5.36,3.48Z"/><path class="cls-5" d="m57.78,824.91h0c-2.49-.04-4.48-2.1-4.43-4.59l.8-45.37c.05-2.49,2.1-4.48,4.6-4.44h0c2.49.05,4.48,2.1,4.43,4.6l-.8,45.37c-.04,2.49-2.1,4.48-4.6,4.43Z"/><path class="cls-5" d="m1243.78,1324.95h0c1.55,1.96,1.23,4.81-.73,6.37l-35.36,28.2c-1.95,1.56-4.79,1.23-6.34-.73h0c-1.55-1.96-1.22-4.81.73-6.37l35.36-28.2c1.95-1.56,4.79-1.23,6.34.73Z"/><path class="cls-6" d="m866.73,961.02h0c1.26-2.16,4.02-2.89,6.18-1.63l38.99,22.87c2.15,1.26,2.88,4.04,1.62,6.2h0c-1.26,2.16-4.02,2.89-6.18,1.63l-38.99-22.87c-2.15-1.26-2.88-4.04-1.62-6.2Z"/><path class="cls-4" d="m203.7,1733.23h0c-2.14,1.29-4.91.6-6.2-1.55l-23.27-38.86c-1.28-2.15-.59-4.93,1.54-6.22h0c2.14-1.29,4.91-.6,6.2,1.55l23.27,38.86c1.28,2.15.6,4.93-1.54,6.22Z"/><path class="cls-5" d="m1560.19,730.49h0c1.7-1.83,4.56-1.93,6.38-.22l33.01,30.94c1.82,1.71,1.92,4.58.22,6.41h0c-1.7,1.83-4.56,1.93-6.38.22l-33.01-30.94c-1.82-1.71-1.92-4.58-.22-6.41Z"/><path class="cls-5" d="m674.75,1448.89h0c-.38,2.48-2.68,4.17-5.15,3.79l-44.63-6.9c-2.46-.38-4.15-2.69-3.78-5.17h0c.38-2.48,2.68-4.17,5.15-3.79l44.63,6.9c2.46.38,4.16,2.7,3.78,5.17Z"/><path class="cls-3" d="m1098.83,1526.72h0c-2-1.49-2.42-4.33-.93-6.34l26.92-36.4c1.49-2.01,4.32-2.43,6.32-.94h0c2,1.49,2.42,4.33.93,6.34l-26.92,36.4c-1.49,2.01-4.32,2.43-6.32.94Z"/><path class="cls-5" d="m236.4,1074.92h0c1.8-1.74,4.66-1.68,6.38.12l31.32,32.67c1.73,1.8,1.67,4.67-.12,6.41h0c-1.8,1.74-4.65,1.68-6.39-.12l-31.31-32.67c-1.73-1.81-1.68-4.67.12-6.41Z"/><path class="cls-6" d="m1786.93,1769.2h0c2.05,1.43,2.56,4.25,1.13,6.31l-25.75,37.25c-1.42,2.06-4.24,2.57-6.28,1.14h0c-2.05-1.43-2.56-4.25-1.13-6.31l25.75-37.25c1.42-2.06,4.24-2.57,6.28-1.14Z"/><path class="cls-3" d="m791.62,1658.1h0c-.24-2.49,1.59-4.7,4.08-4.94l44.91-4.3c2.49-.24,4.71,1.59,4.94,4.09h0c.24,2.49-1.59,4.7-4.08,4.94l-44.91,4.3c-2.5.24-4.71-1.59-4.95-4.08Z"/><path class="cls-3" d="m411.18,733.65h0c-1.29-2.14-.61-4.93,1.52-6.23l38.62-23.5c2.13-1.3,4.91-.61,6.2,1.53h0c1.29,2.14.61,4.93-1.52,6.23l-38.62,23.49c-2.13,1.3-4.91.61-6.2-1.53Z"/><path class="cls-4" d="m1508.42,1042.92h0c-.35-2.48,1.38-4.77,3.85-5.12l44.72-6.28c2.47-.35,4.75,1.38,5.1,3.86h0c.34,2.48-1.38,4.77-3.85,5.12l-44.72,6.28c-2.47.35-4.75-1.38-5.1-3.86Z"/><path class="cls-1" d="m1257.99,505.66h0c-.94-2.32.17-4.97,2.48-5.91l41.82-17.1c2.31-.94,4.94.17,5.88,2.49h0c.94,2.32-.17,4.97-2.48,5.91l-41.82,17.1c-2.31.94-4.94-.17-5.88-2.49Z"/><path class="cls-5" d="m160.19,1080.87h0c2.1,1.35,2.71,4.16,1.37,6.26l-24.35,38.19c-1.35,2.11-4.14,2.72-6.24,1.38h0c-2.1-1.35-2.71-4.16-1.37-6.27l24.35-38.19c1.34-2.11,4.14-2.72,6.24-1.37Z"/><path class="cls-6" d="m699.68,555.99h0c2.42.6,3.9,3.05,3.31,5.48l-10.74,44.04c-.59,2.43-3.04,3.92-5.46,3.33h0c-2.42-.6-3.9-3.05-3.31-5.48l10.74-44.04c.59-2.43,3.04-3.92,5.46-3.33Z"/><path class="cls-5" d="m209.42,24.28h0c2.38.76,3.69,3.31,2.93,5.69l-13.69,43.21c-.75,2.39-3.29,3.7-5.67,2.95h0c-2.38-.76-3.69-3.31-2.93-5.7l13.69-43.21c.76-2.38,3.29-3.7,5.67-2.94Z"/><path class="cls-6" d="m294.84,137.37h0c.01-2.5,2.05-4.52,4.55-4.51l45.12.22c2.51.01,4.52,2.05,4.51,4.55h0c-.01,2.5-2.05,4.52-4.56,4.51l-45.12-.22c-2.5-.01-4.52-2.05-4.51-4.56Z"/><path class="cls-6" d="m797.94,353.02h0c1.55,1.96,1.22,4.82-.73,6.37l-35.39,28.16c-1.95,1.56-4.79,1.23-6.34-.74h0c-1.55-1.96-1.22-4.82.73-6.37l35.39-28.16c1.96-1.56,4.79-1.23,6.34.74Z"/><path class="cls-6" d="m353.01,543.13h0c2.38.76,3.69,3.32,2.93,5.7l-13.75,43.19c-.76,2.39-3.3,3.7-5.68,2.94h0c-2.38-.76-3.68-3.31-2.92-5.7l13.75-43.19c.76-2.39,3.3-3.7,5.68-2.94Z"/><path class="cls-1" d="m1415.08,744.68h0c-2.47-.34-4.2-2.62-3.87-5.1l6.06-44.93c.33-2.48,2.61-4.22,5.08-3.89h0c2.47.34,4.2,2.62,3.87,5.1l-6.05,44.93c-.34,2.48-2.61,4.22-5.08,3.89Z"/><path class="cls-2" d="m1087.04,573.16h0c1.37,2.09.79,4.9-1.29,6.28l-37.71,24.94c-2.08,1.38-4.88.8-6.25-1.29h0c-1.37-2.09-.79-4.9,1.29-6.28l37.72-24.93c2.08-1.38,4.88-.8,6.25,1.29Z"/><path class="cls-3" d="m195.35,1533.88h0c2.37.78,3.66,3.34,2.88,5.72l-14.11,43.08c-.78,2.38-3.33,3.67-5.7,2.89h0c-2.37-.78-3.66-3.35-2.88-5.72l14.11-43.08c.78-2.38,3.33-3.67,5.7-2.89Z"/><path class="cls-2" d="m542.94,61.21h0c-.64-2.42.8-4.9,3.21-5.54l43.65-11.62c2.41-.64,4.88.8,5.52,3.22h0c.64,2.42-.8,4.9-3.21,5.54l-43.65,11.62c-2.41.64-4.88-.8-5.52-3.22Z"/><path class="cls-6" d="m1810.29,152.69h0c-1.14,2.23-3.86,3.11-6.08,1.96l-40.17-20.71c-2.22-1.14-3.09-3.88-1.95-6.1h0c1.14-2.23,3.86-3.11,6.08-1.96l40.17,20.71c2.22,1.14,3.09,3.88,1.95,6.1Z"/><path class="cls-4" d="m1831.24,1595.56h0c-1.01,2.29-3.68,3.31-5.96,2.29l-41.24-18.47c-2.28-1.02-3.3-3.7-2.29-5.99h0c1.02-2.29,3.69-3.32,5.96-2.3l41.24,18.47c2.28,1.02,3.3,3.7,2.28,5.99Z"/><path class="cls-5" d="m705.19,857.25h0c2.38-.75,4.91.58,5.66,2.97l13.54,43.26c.75,2.39-.57,4.93-2.95,5.69h0c-2.38.75-4.91-.58-5.66-2.97l-13.54-43.26c-.75-2.39.57-4.93,2.95-5.68Z"/><path class="cls-2" d="m1242.78,621.05h0c-1.65-1.88-1.48-4.74.39-6.4l33.81-30.06c1.87-1.66,4.72-1.49,6.37.39h0c1.65,1.88,1.48,4.74-.39,6.4l-33.81,30.06c-1.87,1.66-4.72,1.49-6.37-.39Z"/><path class="cls-6" d="m851.84,1119.53h0c-1.41,2.07-4.22,2.59-6.28,1.18l-37.25-25.63c-2.06-1.41-2.58-4.24-1.17-6.3h0c1.41-2.07,4.22-2.59,6.28-1.18l37.25,25.63c2.06,1.42,2.58,4.24,1.17,6.3Z"/><path class="cls-4" d="m746.88,947.14h0c.52-2.45,2.91-4.02,5.35-3.5l44.18,9.39c2.44.52,4,2.93,3.48,5.38h0c-.52,2.45-2.91,4.02-5.35,3.5l-44.17-9.39c-2.44-.52-4-2.93-3.48-5.38Z"/><path class="cls-1" d="m1428.69,924.37h0c2.48-.29,4.72,1.49,5.01,3.98l5.23,45.04c.29,2.49-1.49,4.74-3.96,5.03h0c-2.48.29-4.72-1.49-5.01-3.98l-5.22-45.04c-.29-2.49,1.48-4.74,3.96-5.03Z"/><path class="cls-2" d="m185.97,716.47h0c-1.66-1.87-1.49-4.73.37-6.4l33.72-30.16c1.86-1.66,4.72-1.5,6.38.37h0c1.66,1.87,1.49,4.74-.37,6.4l-33.72,30.16c-1.86,1.66-4.72,1.5-6.38-.37Z"/><path class="cls-2" d="m519.47,134.09h0c-2.49.18-4.65-1.7-4.82-4.19l-3.19-45.27c-.18-2.49,1.7-4.65,4.18-4.82h0c2.49-.18,4.65,1.7,4.83,4.19l3.18,45.27c.17,2.49-1.7,4.64-4.18,4.82Z"/><path class="cls-3" d="m1746.55,1483.63h0c-1.91,1.61-4.76,1.35-6.36-.57l-28.95-34.79c-1.6-1.92-1.34-4.78.57-6.39h0c1.91-1.61,4.76-1.35,6.36.57l28.95,34.79c1.6,1.92,1.35,4.78-.57,6.39Z"/><path class="cls-6" d="m1063.17,356.38h0c-2.04,1.44-4.86.94-6.29-1.11l-25.91-37.14c-1.43-2.05-.93-4.88,1.11-6.32h0c2.04-1.44,4.86-.94,6.29,1.11l25.91,37.14c1.43,2.05.93,4.88-1.11,6.32Z"/><path class="cls-4" d="m1409.07,313.87h0c-.54,2.45-2.95,3.99-5.38,3.45l-44.09-9.79c-2.43-.54-3.97-2.96-3.43-5.41h0c.54-2.44,2.95-3.99,5.38-3.45l44.09,9.79c2.43.54,3.97,2.96,3.43,5.41Z"/><path class="cls-3" d="m567.85,1601.64h0c.32-2.48,2.59-4.23,5.06-3.91l44.78,5.87c2.47.32,4.21,2.6,3.89,5.08h0c-.32,2.48-2.59,4.23-5.06,3.91l-44.78-5.87c-2.47-.33-4.22-2.6-3.89-5.08Z"/><path class="cls-4" d="m792.45,1545.6h0c2.1-1.36,4.89-.75,6.24,1.36l24.44,38.13c1.35,2.11.74,4.91-1.35,6.27h0c-2.1,1.36-4.89.75-6.24-1.36l-24.44-38.13c-1.35-2.11-.74-4.91,1.35-6.27Z"/><path class="cls-4" d="m1036.95,1849h0c2.34.88,3.52,3.49,2.65,5.83l-15.77,42.49c-.87,2.35-3.47,3.54-5.81,2.66h0c-2.34-.87-3.53-3.48-2.65-5.83l15.77-42.49c.87-2.35,3.47-3.54,5.81-2.67Z"/><path class="cls-5" d="m1512.05,1822.8h0c-2.35.84-4.93-.39-5.77-2.75l-15.16-42.71c-.84-2.36.39-4.95,2.74-5.79h0c2.35-.84,4.93.39,5.77,2.75l15.16,42.71c.84,2.36-.39,4.95-2.74,5.79Z"/><path class="cls-4" d="m807.72,804.25h0c1.6,1.92,1.34,4.78-.57,6.39l-34.67,29.05c-1.91,1.61-4.76,1.35-6.36-.57h0c-1.6-1.92-1.34-4.78.57-6.39l34.67-29.05c1.91-1.61,4.76-1.35,6.36.58Z"/><path class="cls-5" d="m1374.94,877.18h0c1.16,2.22.3,4.96-1.91,6.12l-40.01,21.02c-2.21,1.16-4.94.3-6.09-1.92h0c-1.16-2.22-.3-4.96,1.91-6.12l40.01-21.02c2.21-1.16,4.94-.3,6.09,1.91Z"/><path class="cls-5" d="m904.69,1378.34h0c-.07,2.5-2.15,4.48-4.66,4.41l-45.1-1.24c-2.5-.07-4.48-2.15-4.41-4.66h0c.07-2.5,2.15-4.48,4.66-4.41l45.1,1.24c2.5.07,4.48,2.15,4.41,4.66Z"/><path class="cls-2" d="m1392.09,1363.17h0c2.25,1.07,3.22,3.77,2.15,6.04l-19.29,41c-1.06,2.27-3.76,3.23-6.01,2.16h0c-2.25-1.07-3.22-3.77-2.15-6.04l19.29-41c1.06-2.26,3.76-3.23,6.01-2.16Z"/><path class="cls-1" d="m476.31,1061.73h0c.75-2.39,3.28-3.72,5.66-2.96l43.07,13.63c2.38.75,3.7,3.3,2.95,5.69h0c-.75,2.39-3.28,3.72-5.66,2.96l-43.07-13.63c-2.38-.75-3.7-3.3-2.95-5.69Z"/><path class="cls-6" d="m1813.84,1387.02h0c-1.17-2.21-.33-4.96,1.88-6.13l39.91-21.21c2.2-1.17,4.94-.33,6.1,1.89h0c1.17,2.21.33,4.96-1.88,6.13l-39.91,21.21c-2.2,1.17-4.94.33-6.1-1.89Z"/><path class="cls-3" d="m968.97,825.66h0c2.46.41,4.12,2.75,3.71,5.22l-7.46,44.72c-.41,2.47-2.74,4.14-5.2,3.72h0c-2.46-.41-4.12-2.75-3.71-5.22l7.46-44.72c.41-2.47,2.74-4.14,5.2-3.72Z"/><path class="cls-5" d="m1051.63,1617.96h0c-.13,2.5-2.26,4.43-4.76,4.3l-45.06-2.31c-2.5-.13-4.42-2.26-4.3-4.76h0c.13-2.5,2.26-4.43,4.76-4.3l45.06,2.31c2.5.13,4.42,2.26,4.3,4.76Z"/><path class="cls-5" d="m282.93,1942.39h0c2.42.6,3.9,3.06,3.3,5.49l-10.81,44.02c-.6,2.43-3.05,3.92-5.47,3.32h0c-2.42-.6-3.9-3.06-3.3-5.49l10.81-44.03c.6-2.43,3.05-3.92,5.47-3.32Z"/><path class="cls-2" d="m630.06,1674.99h0c2.19-1.19,4.93-.38,6.12,1.82l21.58,39.83c1.19,2.2.38,4.95-1.81,6.15h0c-2.19,1.2-4.93.38-6.12-1.82l-21.58-39.83c-1.19-2.2-.38-4.95,1.81-6.15Z"/><path class="cls-6" d="m1590.15,1468.79h0c-1.85-1.68-2-4.54-.33-6.4l30.22-33.69c1.67-1.86,4.52-2.01,6.38-.33h0c1.85,1.67,2,4.54.33,6.4l-30.22,33.69c-1.67,1.86-4.53,2.01-6.38.34Z"/><path class="cls-6" d="m599.48,515.14h0c1.46-2.03,4.28-2.48,6.3-1.02l36.6,26.56c2.02,1.47,2.47,4.3,1.01,6.33h0c-1.46,2.03-4.28,2.49-6.3,1.02l-36.6-26.56c-2.02-1.47-2.47-4.3-1.01-6.33Z"/><path class="cls-3" d="m90.34,707.03h0c-2.09,1.36-4.89.76-6.25-1.34l-24.58-38.04c-1.36-2.1-.76-4.91,1.33-6.27h0c2.09-1.36,4.89-.77,6.25,1.34l24.58,38.03c1.36,2.1.76,4.91-1.33,6.27Z"/><path class="cls-3" d="m256.37,1767.81h0c-2.22,1.14-4.94.27-6.08-1.96l-20.66-40.32c-1.14-2.23-.27-4.96,1.95-6.11h0c2.22-1.15,4.94-.27,6.08,1.96l20.66,40.32c1.14,2.23.27,4.96-1.95,6.11Z"/><path class="cls-6" d="m868.13,494.26h0c-2.34.87-4.94-.33-5.8-2.68l-15.69-42.52c-.87-2.35.32-4.96,2.66-5.83h0c2.34-.87,4.94.33,5.8,2.68l15.69,42.52c.87,2.35-.33,4.96-2.66,5.83Z"/><path class="cls-4" d="m1191.9,1873.57h0c2.16-1.26,4.92-.52,6.17,1.65l22.66,39.22c1.25,2.17.52,4.94-1.64,6.2h0c-2.16,1.26-4.92.52-6.17-1.65l-22.66-39.22c-1.25-2.17-.52-4.94,1.64-6.2Z"/><path class="cls-3" d="m1568.55,1863.64h0c2.03-1.45,4.85-.97,6.3,1.07l26.15,36.97c1.44,2.04.97,4.87-1.07,6.32h0c-2.03,1.45-4.85.97-6.3-1.07l-26.15-36.97c-1.44-2.04-.97-4.87,1.07-6.32Z"/><path class="cls-3" d="m1824.32,55.79h0c-1.17-2.21-.34-4.96,1.86-6.13l39.85-21.32c2.2-1.18,4.94-.34,6.11,1.87h0c1.17,2.21.34,4.95-1.86,6.13l-39.85,21.32c-2.2,1.18-4.94.34-6.11-1.87Z"/><path class="cls-3" d="m499.74,495.55h0c2.49.17,4.37,2.32,4.2,4.81l-3.05,45.28c-.17,2.49-2.32,4.37-4.81,4.2h0c-2.49-.17-4.37-2.32-4.2-4.81l3.05-45.28c.17-2.49,2.32-4.37,4.81-4.2Z"/><path class="cls-1" d="m.05,72.8H.05c-.38-2.47,1.31-4.79,3.77-5.18l44.62-6.95c2.46-.38,4.77,1.31,5.15,3.78h0c.38,2.47-1.31,4.79-3.77,5.18l-44.62,6.95c-2.47.38-4.77-1.31-5.16-3.78Z"/><path class="cls-1" d="m1296.9,1872.09h0c-2.49.09-4.59-1.85-4.68-4.35l-1.69-45.35c-.09-2.49,1.85-4.59,4.34-4.68h0c2.49-.09,4.59,1.85,4.68,4.34l1.69,45.35c.09,2.49-1.85,4.59-4.34,4.68Z"/><path class="cls-5" d="m1438.82,1723.33h0c1.83,1.7,1.94,4.57.24,6.41l-30.7,33.25c-1.7,1.84-4.55,1.94-6.38.24h0c-1.83-1.7-1.94-4.57-.24-6.41l30.7-33.25c1.69-1.84,4.55-1.94,6.38-.24Z"/><path class="cls-3" d="m1312.43,1516.45h0c-2.39-.72-3.74-3.25-3.02-5.65l13.01-43.42c.72-2.4,3.24-3.76,5.62-3.03h0c2.39.72,3.74,3.25,3.02,5.65l-13.01,43.42c-.72,2.4-3.24,3.76-5.62,3.04Z"/><path class="cls-3" d="m764.45,1361.07h0c-2.14,1.29-4.91.6-6.2-1.54l-23.33-38.82c-1.29-2.14-.6-4.93,1.53-6.23h0c2.13-1.3,4.91-.6,6.2,1.54l23.33,38.82c1.29,2.14.6,4.93-1.53,6.23Z"/><path class="cls-5" d="m872.4,663.51h0c-.25,2.49-2.47,4.32-4.96,4.07l-44.9-4.46c-2.49-.25-4.31-2.47-4.06-4.96h0c.24-2.49,2.47-4.31,4.96-4.07l44.9,4.46c2.49.25,4.31,2.47,4.06,4.96Z"/><path class="cls-6" d="m1712.18,341.19h0c1.27,2.16.55,4.94-1.6,6.21l-38.91,23.02c-2.15,1.27-4.92.55-6.18-1.61h0c-1.27-2.16-.55-4.94,1.6-6.21l38.91-23.02c2.15-1.27,4.92-.55,6.18,1.6Z"/><path class="cls-1" d="m173.81,365.09h0c.83,2.36-.4,4.95-2.75,5.79l-42.56,15.15c-2.35.84-4.93-.4-5.77-2.76h0c-.83-2.36.4-4.95,2.75-5.79l42.56-15.16c2.35-.84,4.93.4,5.77,2.76Z"/><path class="cls-5" d="m444.46,1216.14h0c1.46,2.03,1,4.86-1.02,6.33l-36.63,26.51c-2.02,1.47-4.85,1-6.3-1.03h0c-1.46-2.03-1-4.87,1.02-6.33l36.63-26.51c2.02-1.47,4.85-1,6.3,1.03Z"/><path class="cls-6" d="m1055.64,1335.71h0c-.72-2.4.63-4.93,3.01-5.65l43.22-13.12c2.39-.72,4.91.63,5.63,3.03h0c.72,2.4-.63,4.93-3.01,5.65l-43.22,13.12c-2.39.73-4.91-.63-5.63-3.03Z"/><path class="cls-6" d="m407.65,64.22h0c-1.31-2.13-.66-4.92,1.46-6.24l38.38-23.89c2.12-1.32,4.9-.66,6.22,1.46h0c1.31,2.13.66,4.92-1.46,6.24l-38.38,23.89c-2.12,1.32-4.9.66-6.22-1.46Z"/><path class="cls-3" d="m741.77,127.75h0c-1.79-1.74-1.83-4.61-.1-6.41l31.43-32.55c1.74-1.8,4.59-1.84,6.38-.1h0c1.79,1.74,1.83,4.61.1,6.41l-31.43,32.55c-1.74,1.8-4.59,1.84-6.39.1Z"/><path class="cls-6" d="m670.38,355.68h0c-2.1-1.36-2.7-4.16-1.35-6.27l24.49-38.09c1.35-2.1,4.15-2.71,6.24-1.35h0c2.09,1.36,2.7,4.16,1.34,6.27l-24.49,38.1c-1.35,2.1-4.15,2.71-6.24,1.35Z"/><path class="cls-3" d="m1850,232.31h0c-2.49-.12-4.42-2.23-4.3-4.72l2.08-45.33c.12-2.49,2.23-4.42,4.72-4.3h0c2.49.11,4.42,2.23,4.3,4.72l-2.08,45.33c-.11,2.49-2.23,4.42-4.72,4.3Z"/><path class="cls-6" d="m1597.78,322.38h0c2.19,1.19,3.01,3.94,1.82,6.14l-21.48,39.89c-1.19,2.2-3.93,3.02-6.12,1.83h0c-2.19-1.19-3.01-3.94-1.82-6.15l21.48-39.89c1.18-2.2,3.92-3.02,6.12-1.83Z"/><path class="cls-3" d="m1669.21,1286.83h0c-2.44-.52-4-2.93-3.48-5.38l9.38-44.35c.52-2.45,2.92-4.02,5.36-3.5h0c2.44.52,4,2.93,3.48,5.38l-9.38,44.35c-.52,2.45-2.91,4.01-5.35,3.5Z"/><path class="cls-2" d="m1635.21,138.2h0c-2.21-1.15-3.07-3.89-1.92-6.11l20.82-40.24c1.15-2.22,3.88-3.09,6.09-1.93h0c2.21,1.15,3.08,3.89,1.93,6.11l-20.82,40.23c-1.15,2.22-3.88,3.09-6.09,1.93Z"/><path class="cls-1" d="m85,1758h0c.41-2.47,2.74-4.14,5.2-3.73l44.54,7.44c2.46.41,4.12,2.75,3.71,5.22h0c-.41,2.47-2.74,4.14-5.2,3.73l-44.54-7.44c-2.46-.41-4.12-2.75-3.71-5.22Z"/><path class="cls-5" d="m55.05,1068.35h0c-2.42-.6-3.89-3.06-3.29-5.49l10.9-44c.6-2.43,3.05-3.91,5.47-3.31h0c2.42.61,3.89,3.07,3.29,5.5l-10.9,44c-.6,2.43-3.05,3.91-5.47,3.31Z"/><path class="cls-3" d="m1513.47,1438.7h0c.59-2.43,3.03-3.93,5.45-3.34l43.88,10.71c2.42.59,3.91,3.04,3.32,5.48h0c-.59,2.43-3.03,3.93-5.45,3.33l-43.88-10.71c-2.42-.59-3.91-3.04-3.32-5.48Z"/><path class="cls-2" d="m884.69,872.95h0c.49,2.45-1.1,4.84-3.54,5.33l-44.28,8.87c-2.45.49-4.82-1.1-5.31-3.56h0c-.49-2.45,1.1-4.84,3.54-5.33l44.28-8.87c2.44-.49,4.82,1.1,5.31,3.56Z"/><path class="cls-3" d="m1570.13,1117.09h0c1.25-2.16,4.02-2.9,6.17-1.64l39.03,22.8c2.16,1.26,2.89,4.03,1.63,6.2h0c-1.25,2.17-4.02,2.9-6.17,1.64l-39.03-22.8c-2.16-1.26-2.89-4.03-1.63-6.2Z"/><path class="cls-1" d="m1481.85,1146.65h0c-1.04,2.28-3.72,3.28-5.98,2.24l-41.07-18.85c-2.27-1.04-3.27-3.73-2.23-6.01h0c1.04-2.28,3.72-3.28,5.99-2.24l41.07,18.84c2.27,1.04,3.27,3.73,2.23,6.01Z"/><path class="cls-1" d="m1397.69,1857.45h0c-.7,2.4-3.2,3.78-5.6,3.08l-43.35-12.7c-2.39-.7-3.77-3.22-3.07-5.62h0c.7-2.4,3.21-3.78,5.6-3.08l43.35,12.7c2.39.7,3.77,3.22,3.07,5.62Z"/><path class="cls-3" d="m1396.61,1838.39h0c-1.3-2.14-.63-4.93,1.49-6.24l38.5-23.69c2.13-1.31,4.91-.64,6.21,1.5h0c1.3,2.14.64,4.93-1.49,6.24l-38.5,23.69c-2.13,1.31-4.91.64-6.21-1.5Z"/><path class="cls-1" d="m1693.37,1027.6h0c-1.65-1.88-1.48-4.74.39-6.4l33.83-30.03c1.87-1.66,4.72-1.48,6.37.39h0c1.65,1.88,1.48,4.74-.39,6.4l-33.83,30.03c-1.87,1.66-4.72,1.48-6.37-.4Z"/><path class="cls-6" d="m250.66,287.88h0c.23-2.49,2.45-4.32,4.94-4.09l44.92,4.27c2.49.24,4.32,2.45,4.08,4.94h0c-.23,2.49-2.45,4.32-4.94,4.09l-44.92-4.27c-2.49-.24-4.32-2.45-4.09-4.94Z"/><path class="cls-1" d="m1207.05,1943.26h0c-.34-2.48,1.38-4.77,3.85-5.11l44.73-6.2c2.47-.34,4.75,1.39,5.09,3.87h0c.34,2.48-1.38,4.77-3.85,5.11l-44.73,6.2c-2.47.34-4.75-1.39-5.09-3.87Z"/><path class="cls-5" d="m1829.86,1222.57h0c-.06-2.5,1.93-4.58,4.43-4.63l45.11-1.01c2.5-.06,4.58,1.93,4.63,4.43h0c.06,2.5-1.93,4.58-4.43,4.63l-45.11,1.01c-2.5.05-4.58-1.93-4.64-4.43Z"/><path class="cls-6" d="m1412.74,572.08h0c1.8,1.74,1.85,4.61.12,6.41l-31.33,32.66c-1.73,1.8-4.59,1.86-6.38.12h0c-1.8-1.74-1.85-4.61-.12-6.41l31.33-32.66c1.73-1.81,4.59-1.86,6.39-.12Z"/><path class="cls-5" d="m1152.32,312.68h0c.2-2.5,2.38-4.36,4.88-4.16l44.98,3.59c2.49.2,4.36,2.38,4.16,4.88h0c-.2,2.5-2.38,4.36-4.88,4.16l-44.98-3.59c-2.5-.2-4.36-2.38-4.16-4.88Z"/><path class="cls-6" d="m1799.96,744.87h0c-2.1-1.36-2.7-4.16-1.36-6.27l24.42-38.14c1.35-2.11,4.14-2.72,6.24-1.36h0c2.1,1.35,2.7,4.16,1.36,6.27l-24.42,38.14c-1.35,2.11-4.14,2.72-6.24,1.36Z"/><path class="cls-5" d="m1442.36,1034.98h0c1.51-2,4.34-2.39,6.33-.88l35.98,27.39c1.99,1.51,2.38,4.36.87,6.35h0c-1.51,2-4.34,2.39-6.33.87l-35.98-27.4c-1.99-1.51-2.38-4.36-.87-6.35Z"/><path class="cls-5" d="m762.57,1581.49h0c-.12,2.5-2.24,4.43-4.74,4.32l-45.07-2.15c-2.5-.12-4.43-2.24-4.31-4.74h0c.12-2.5,2.24-4.43,4.74-4.32l45.07,2.15c2.5.12,4.43,2.24,4.31,4.74Z"/><path class="cls-4" d="m840.51,568.56h0c-2.05,1.43-4.86.91-6.28-1.14l-25.72-37.27c-1.42-2.06-.91-4.88,1.14-6.31h0c2.05-1.43,4.86-.91,6.28,1.15l25.72,37.27c1.42,2.06.91,4.88-1.14,6.31Z"/><path class="cls-5" d="m288.11,474.59h0c2.44.52,3.99,2.93,3.48,5.38l-9.4,44.35c-.52,2.45-2.92,4.01-5.35,3.49h0c-2.44-.52-4-2.93-3.48-5.38l9.4-44.35c.52-2.45,2.92-4.01,5.36-3.49Z"/><path class="cls-1" d="m809.83,803.69h0c-2.46-.38-4.15-2.7-3.77-5.18l6.92-44.81c.38-2.47,2.69-4.17,5.15-3.78h0c2.46.38,4.15,2.7,3.77,5.18l-6.93,44.81c-.38,2.47-2.69,4.17-5.15,3.78Z"/><path class="cls-2" d="m948.61,673.7h0c.9-2.34,3.51-3.5,5.84-2.6l42.14,16.3c2.33.9,3.49,3.52,2.59,5.86h0c-.9,2.34-3.51,3.5-5.84,2.6l-42.14-16.3c-2.33-.9-3.49-3.52-2.59-5.86Z"/><path class="cls-5" d="m968.84,1064.54h0c2.46.42,4.11,2.76,3.7,5.23l-7.52,44.71c-.41,2.47-2.75,4.13-5.2,3.72h0c-2.46-.42-4.11-2.76-3.7-5.23l7.52-44.71c.41-2.47,2.74-4.13,5.2-3.72Z"/><path class="cls-3" d="m1207.74,176.22h0c-2.38-.75-3.7-3.29-2.96-5.68l13.49-43.27c.74-2.39,3.28-3.72,5.66-2.97h0c2.38.75,3.71,3.29,2.96,5.68l-13.49,43.27c-.74,2.39-3.28,3.72-5.66,2.97Z"/><path class="cls-6" d="m1287.2,1516.12h0c1.14,2.23.27,4.96-1.95,6.11l-40.15,20.76c-2.22,1.15-4.94.27-6.08-1.96h0c-1.14-2.23-.27-4.96,1.95-6.11l40.15-20.76c2.22-1.15,4.94-.27,6.08,1.95Z"/><path class="cls-4" d="m1608.65,1298.57h0c0,2.5-2.04,4.53-4.54,4.53l-45.12-.07c-2.51,0-4.53-2.04-4.53-4.54h0c0-2.5,2.04-4.53,4.54-4.53l45.12.06c2.5,0,4.53,2.04,4.53,4.54Z"/><path class="cls-3" d="m963.72,480.56h0c-2.49.05-4.55-1.93-4.6-4.43l-.89-45.37c-.05-2.49,1.93-4.55,4.43-4.6h0c2.49-.05,4.55,1.93,4.6,4.43l.89,45.37c.05,2.49-1.93,4.55-4.42,4.6Z"/><path class="cls-6" d="m231.92,1858.78h0c1.28-2.15,4.05-2.85,6.19-1.57l38.76,23.27c2.14,1.28,2.84,4.07,1.56,6.22h0c-1.28,2.15-4.05,2.85-6.19,1.56l-38.76-23.27c-2.14-1.29-2.84-4.07-1.56-6.22Z"/><path class="cls-4" d="m1500.49,58.15h0c2.32.93,3.45,3.57,2.52,5.89l-16.73,42.12c-.92,2.32-3.55,3.46-5.87,2.53h0c-2.32-.93-3.45-3.56-2.52-5.89l16.73-42.12c.93-2.33,3.55-3.46,5.87-2.53Z"/><path class="cls-5" d="m1825.25,117.58h0c-2.47.35-4.75-1.38-5.1-3.85l-6.32-44.9c-.35-2.48,1.37-4.77,3.84-5.12h0c2.47-.35,4.75,1.37,5.1,3.85l6.32,44.9c.35,2.48-1.37,4.77-3.84,5.13Z"/><path class="cls-6" d="m1098.02,1211.07h0c2.49.08,4.44,2.17,4.36,4.67l-1.54,45.36c-.08,2.49-2.17,4.44-4.67,4.36h0c-2.49-.08-4.44-2.17-4.36-4.67l1.54-45.35c.08-2.49,2.17-4.44,4.67-4.36Z"/><path class="cls-2" d="m1545.49,1188.16h0c1.26-2.16,4.03-2.88,6.18-1.61l38.92,22.99c2.15,1.27,2.87,4.05,1.6,6.21h0c-1.26,2.16-4.03,2.88-6.18,1.61l-38.92-22.99c-2.15-1.27-2.87-4.05-1.6-6.21Z"/><path class="cls-5" d="m1910.98,1275.26h0c2.16-1.25,4.92-.5,6.17,1.67l22.53,39.29c1.24,2.17.5,4.94-1.66,6.19h0c-2.16,1.25-4.92.5-6.17-1.67l-22.53-39.29c-1.25-2.17-.5-4.94,1.66-6.19Z"/><path class="cls-1" d="m1017.1,1127.12h0c1.48-2.01,4.31-2.44,6.31-.95l36.3,26.98c2,1.49,2.43,4.33.94,6.34h0c-1.48,2.01-4.31,2.44-6.31.95l-36.29-26.98c-2-1.49-2.43-4.33-.94-6.34Z"/><path class="cls-6" d="m116.6,1669.39h0c2.11,1.33,2.74,4.13,1.42,6.25l-24.04,38.38c-1.33,2.12-4.11,2.76-6.23,1.42h0c-2.11-1.33-2.75-4.13-1.42-6.25l24.04-38.38c1.33-2.12,4.12-2.76,6.23-1.42Z"/><path class="cls-2" d="m1429.21,1409.35h0c2.1-1.36,4.89-.75,6.24,1.35l24.48,38.1c1.35,2.1.75,4.91-1.35,6.27h0c-2.1,1.36-4.89.75-6.24-1.35l-24.47-38.1c-1.35-2.1-.75-4.91,1.35-6.27Z"/><path class="cls-1" d="m1537.11,401.18h0c-1.75,1.79-4.61,1.81-6.39.06l-32.21-31.78c-1.78-1.76-1.8-4.63-.06-6.41h0c1.75-1.79,4.61-1.81,6.39-.06l32.21,31.78c1.78,1.76,1.81,4.62.06,6.41Z"/><path class="cls-2" d="m1794.57,1281.36h0c2.05,1.43,2.55,4.25,1.13,6.31l-25.76,37.24c-1.42,2.06-4.24,2.57-6.28,1.14h0c-2.05-1.43-2.56-4.25-1.13-6.31l25.76-37.24c1.42-2.06,4.24-2.57,6.29-1.14Z"/><path class="cls-6" d="m209.5,1194.82h0c-1,2.3-3.66,3.34-5.95,2.34l-41.37-18.17c-2.28-1-3.33-3.68-2.33-5.97h0c1-2.29,3.66-3.34,5.95-2.34l41.37,18.17c2.28,1,3.33,3.68,2.33,5.97Z"/><path class="cls-6" d="m1547.65,1648.58h0c-1.38,2.09-4.18,2.66-6.26,1.28l-37.67-25.01c-2.08-1.38-2.65-4.19-1.28-6.28h0c1.38-2.09,4.18-2.66,6.26-1.28l37.67,25.01c2.08,1.38,2.65,4.19,1.28,6.28Z"/><path class="cls-1" d="m583.83,1889.89h0c-2.48.27-4.71-1.53-4.97-4.01l-4.83-45.12c-.26-2.48,1.53-4.7,4-4.97h0c2.48-.27,4.71,1.53,4.98,4.01l4.83,45.12c.27,2.48-1.53,4.7-4.01,4.97Z"/><path class="cls-6" d="m1994.9,657.73h0c2.19,1.2,2.99,3.96,1.79,6.16l-21.71,39.76c-1.2,2.19-3.94,3-6.13,1.8h0c-2.19-1.2-2.99-3.96-1.79-6.16l21.71-39.76c1.2-2.2,3.94-3,6.13-1.8Z"/><path class="cls-3" d="m1588.77,920.83h0c.38,2.48-1.31,4.79-3.78,5.17l-44.64,6.87c-2.47.38-4.77-1.32-5.15-3.8h0c-.38-2.47,1.31-4.79,3.78-5.17l44.64-6.87c2.47-.38,4.77,1.32,5.15,3.8Z"/><path class="cls-3" d="m1680.18,437.16h0c.35-2.48,2.63-4.21,5.1-3.87l44.72,6.26c2.47.35,4.19,2.64,3.85,5.12h0c-.34,2.48-2.63,4.21-5.09,3.86l-44.72-6.26c-2.47-.35-4.19-2.64-3.85-5.12Z"/><path class="cls-5" d="m775.24,625.46h0c-2.12,1.32-4.9.66-6.22-1.47l-23.75-38.57c-1.31-2.13-.65-4.92,1.47-6.24h0c2.12-1.32,4.9-.66,6.21,1.47l23.75,38.57c1.31,2.13.65,4.93-1.46,6.24Z"/><path class="cls-1" d="m1466.57,446.58h0c.14-2.5,2.28-4.41,4.78-4.28l45.05,2.53c2.5.14,4.41,2.28,4.27,4.78h0c-.14,2.5-2.28,4.42-4.78,4.27l-45.05-2.52c-2.5-.14-4.41-2.28-4.28-4.78Z"/><path class="cls-5" d="m1936.46,1949.52h0c2.3.97,3.37,3.63,2.4,5.94l-17.57,41.77c-.97,2.31-3.62,3.39-5.92,2.41h0c-2.3-.98-3.37-3.64-2.4-5.94l17.57-41.77c.97-2.31,3.62-3.39,5.92-2.41Z"/><path class="cls-1" d="m391.52,791.53h0c2.32.91,3.48,3.53,2.57,5.87l-16.34,42.27c-.9,2.34-3.52,3.49-5.84,2.59h0c-2.32-.9-3.48-3.53-2.57-5.87l16.34-42.27c.9-2.33,3.52-3.49,5.84-2.59Z"/><path class="cls-5" d="m1196.77,1832.46h0c-1.8-1.73-1.85-4.6-.13-6.41l31.28-32.7c1.73-1.81,4.58-1.86,6.38-.13h0c1.8,1.74,1.86,4.61.13,6.41l-31.28,32.7c-1.73,1.81-4.59,1.86-6.38.13Z"/><path class="cls-1" d="m413.96,175.54h0c-.86-2.35.34-4.96,2.68-5.82l42.39-15.62c2.34-.86,4.93.34,5.8,2.7h0c.86,2.35-.34,4.96-2.68,5.82l-42.39,15.62c-2.34.86-4.93-.34-5.79-2.69Z"/><path class="cls-4" d="m1583.56,203.86h0c.55-2.44,2.97-3.97,5.4-3.42l44.04,10c2.43.55,3.96,2.98,3.41,5.42h0c-.55,2.44-2.97,3.98-5.4,3.42l-44.05-10c-2.43-.55-3.96-2.98-3.41-5.42Z"/><path class="cls-1" d="m865.2,1700.33h0c-1.33-2.11-.71-4.92,1.39-6.26l38.13-24.28c2.1-1.34,4.89-.72,6.23,1.4h0c1.33,2.11.71,4.92-1.39,6.26l-38.13,24.28c-2.1,1.34-4.89.71-6.23-1.4Z"/><path class="cls-3" d="m191.91,210.97h0c-.92,2.33-3.54,3.47-5.86,2.55l-41.98-16.69c-2.32-.92-3.45-3.56-2.54-5.89h0c.92-2.33,3.54-3.47,5.86-2.55l41.98,16.69c2.32.92,3.45,3.56,2.54,5.89Z"/><path class="cls-5" d="m1893.53,849.29h0c2.12,1.31,2.79,4.1,1.48,6.24l-23.64,38.63c-1.31,2.13-4.09,2.8-6.21,1.49h0c-2.13-1.31-2.79-4.1-1.48-6.24l23.64-38.63c1.31-2.13,4.09-2.8,6.21-1.49Z"/><path class="cls-2" d="m439.92,978.12h0c-1.7,1.83-4.56,1.92-6.38.21l-32.95-31.01c-1.82-1.71-1.91-4.58-.21-6.41h0c1.7-1.83,4.56-1.92,6.38-.21l32.95,31.01c1.82,1.71,1.91,4.58.21,6.41Z"/><path class="cls-2" d="m597.4,1507.88h0c2.42.59,3.92,3.03,3.33,5.47l-10.56,44.08c-.58,2.43-3.02,3.93-5.45,3.35h0c-2.42-.59-3.92-3.03-3.33-5.47l10.56-44.08c.58-2.43,3.02-3.93,5.44-3.35Z"/></g></svg>